<svg width="44" height="32" fill="none" xmlns="http://www.w3.org/2000/svg"><path d="M37.188.215H6.812C2.228.215 0 2.443 0 7.027v17.95c0 4.583 2.228 6.811 6.812 6.811h30.376c4.584 0 6.812-2.228 6.812-6.812V7.026c0-4.582-2.228-6.81-6.812-6.81zm4.234 24.761c0 3.14-1.088 4.234-4.234 4.234H6.812c-3.14 0-4.234-1.088-4.234-4.234V7.026c0-3.14 1.089-4.233 4.234-4.233h30.376c3.14 0 4.234 1.088 4.234 4.234v17.95z" fill="#02CC9B"/><path d="M19.699 19.545H6.812c-1.71.068-1.71 2.51 0 2.578h12.887c1.71-.068 1.708-2.51 0-2.578zM6.812 15.22h4.142c1.71-.069 1.709-2.511 0-2.579H6.812c-1.71.069-1.71 2.511 0 2.578zm30.376-2.579h-4.142c-1.71.069-1.71 2.511 0 2.578h4.142c1.71-.068 1.709-2.51 0-2.578zm-7.456 1.289a1.29 1.29 0 00-1.289-1.289h-4.142c-1.71.069-1.71 2.511 0 2.578h4.142a1.29 1.29 0 001.29-1.289zm-10.033-1.289h-4.142c-1.71.069-1.71 2.511 0 2.578h4.142c1.71-.068 1.709-2.51 0-2.578zM6.812 8.316h8.744c1.71-.068 1.71-2.51 0-2.578H6.812c-1.71.068-1.71 2.51 0 2.578zm27.614 9.848h-2.76c-5.354.203-5.393 7.88 0 8.101h2.76c5.354-.202 5.392-7.88 0-8.1zm0 5.523h-2.76c-1.953-.076-1.955-2.867 0-2.945h2.76c1.954.077 1.954 2.868 0 2.945z" fill="#02CC9B"/></svg>