<svg width="36" height="41" fill="none" xmlns="http://www.w3.org/2000/svg"><path d="M34.991 10.854l-.001-.03a41.95 41.95 0 01-.036-1.244 4.24 4.24 0 00-3.992-4.153c-4.599-.256-8.157-1.756-11.196-4.72L19.74.684a2.56 2.56 0 00-3.48 0l-.025.025C13.195 3.67 9.637 5.17 5.038 5.428A4.24 4.24 0 001.047 9.58c-.007.449-.02.855-.036 1.242l-.002.073c-.09 4.69-.2 10.526 1.752 15.823 1.073 2.913 2.7 5.446 4.832 7.527 2.43 2.371 5.611 4.253 9.457 5.594A2.913 2.913 0 0018 40a2.876 2.876 0 00.952-.162c3.841-1.343 7.02-3.226 9.447-5.596 2.132-2.083 3.758-4.616 4.832-7.53 1.96-5.313 1.85-11.16 1.76-15.859zM31.03 25.902c-2.06 5.583-6.263 9.418-12.851 11.722a.529.529 0 01-.355 0c-6.596-2.3-10.802-6.132-12.86-11.716-1.8-4.883-1.698-10.241-1.607-14.968v-.026c.018-.406.03-.831.037-1.299.015-.98.795-1.79 1.776-1.844 2.603-.145 4.89-.648 6.99-1.538 2.098-.888 3.961-2.14 5.696-3.826a.216.216 0 01.29 0c1.735 1.687 3.599 2.938 5.697 3.826 2.1.89 4.387 1.393 6.99 1.538a1.884 1.884 0 011.775 1.844c.007.47.02.896.038 1.3.09 4.731.189 10.093-1.616 14.987z" fill="#02CC9B"/><path d="M18 10.034c-5.497 0-9.969 4.471-9.969 9.968s4.472 9.969 9.969 9.969c5.496 0 9.968-4.472 9.968-9.969 0-5.496-4.472-9.968-9.968-9.968zm0 17.59c-4.203 0-7.622-3.42-7.622-7.622s3.42-7.621 7.622-7.621 7.62 3.418 7.62 7.621-3.418 7.622-7.62 7.622z" fill="#02CC9B"/><path d="M20.865 16.907l-4.63 4.63-1.257-1.256a1.174 1.174 0 00-1.66 1.66l2.087 2.086a1.17 1.17 0 001.66 0l5.46-5.46a1.174 1.174 0 00-1.66-1.66z" fill="#02CC9B"/></svg>