<svg width="20" height="20" fill="none" xmlns="http://www.w3.org/2000/svg"><path d="M15.483 12.453c-1.167 0-2.21.532-2.903 1.366L8.073 11.26a3.757 3.757 0 000-2.52l4.506-2.559a3.767 3.767 0 002.903 1.366 3.778 3.778 0 003.773-3.774A3.777 3.777 0 0015.483 0a3.777 3.777 0 00-3.556 5.033L7.42 7.593a3.766 3.766 0 00-2.902-1.366A3.778 3.778 0 00.744 10a3.778 3.778 0 003.774 3.773c1.166 0 2.21-.532 2.902-1.365l4.507 2.558c-.14.395-.218.819-.218 1.26A3.777 3.777 0 0015.483 20a3.777 3.777 0 003.772-3.773 3.778 3.778 0 00-3.772-3.774zm0-11.133c1.352 0 2.452 1.1 2.452 2.453 0 1.353-1.1 2.454-2.452 2.454a2.456 2.456 0 01-2.453-2.454c0-1.352 1.1-2.453 2.453-2.453zM4.518 12.453A2.456 2.456 0 012.065 10c0-1.352 1.1-2.453 2.453-2.453 1.352 0 2.452 1.1 2.452 2.453 0 1.353-1.1 2.453-2.452 2.453zm10.965 6.227a2.456 2.456 0 01-2.453-2.453c0-1.353 1.1-2.454 2.453-2.454a2.456 2.456 0 012.452 2.454c0 1.352-1.1 2.453-2.452 2.453z" fill="#000"/></svg>