<svg width="19" height="19" fill="none" xmlns="http://www.w3.org/2000/svg"><path d="M9.5 3.001c-4.062 0-7.6 2.417-9.5 6 1.9 3.584 5.438 6 9.5 6s7.6-2.416 9.5-6c-1.9-3.582-5.438-6-9.5-6zm0 10.5c-3.057 0-5.944-1.705-7.696-4.5 1.752-2.793 4.64-4.5 7.696-4.5 3.057 0 5.944 1.706 7.696 4.5-1.752 2.795-4.64 4.5-7.696 4.5z" fill="#C7CAD1"/><path d="M9.5 5.627c-1.968 0-3.563 1.51-3.563 3.375 0 1.864 1.595 3.375 3.563 3.375 1.967 0 3.563-1.511 3.563-3.375 0-1.865-1.596-3.375-3.563-3.375zm0 5.25c-1.093 0-1.98-.84-1.98-1.875 0-1.036.887-1.875 1.98-1.875s1.98.839 1.98 1.875c0 1.035-.887 1.875-1.98 1.875z" fill="#C7CAD1"/></svg>