<svg width="23" height="23" fill="none" xmlns="http://www.w3.org/2000/svg"><g clip-path="url(#clip0_55_29451)" fill="#6F7990"><path d="M15.543 18.917h-.674v-2.021a.674.674 0 00-.674-.674H3.369a.674.674 0 00-.674.674v2.021h-.674A2.024 2.024 0 000 20.94v1.392c0 .372.302.665.674.665H16.89a.666.666 0 00.674-.665V20.94a2.024 2.024 0 00-2.021-2.022zm-11.5-1.356h9.478v1.356H4.043v-1.356zm12.173 4.096H1.348v-.718c0-.372.302-.683.673-.683 7.567 0 10.9.017 13.522 0 .371 0 .674.311.674.683v.718z"/><path d="M22.63 18.368a.414.414 0 01-.003-.004l-6.024-8.4a9.963 9.963 0 001.194-1.447 1.915 1.915 0 001.573-.293l.164-.115a1.923 1.923 0 00.464-2.675L16.774.818a1.92 1.92 0 00-2.678-.462l-.163.115a1.933 1.933 0 00-.807 1.43c-1.191.306-2.396.874-3.516 1.665-1.122.79-2.062 1.735-2.75 2.756a1.909 1.909 0 00-1.574.293l-.163.116a1.92 1.92 0 00-.462 2.677l3.222 4.569a1.924 1.924 0 002.678.462l.163-.115a1.909 1.909 0 00.804-1.385 9.972 9.972 0 001.772-.643l6.029 8.405a2.02 2.02 0 003.302-2.333zM14.71 1.572c.167-.118.32-.258.591-.212.152.027.283.11.37.233l3.224 4.615a.574.574 0 01-.138.8l-.163.115a.574.574 0 01-.8-.138L14.57 2.417c-.184-.261-.118-.664.139-.845zm-4.763 11.65l-.163.116a.575.575 0 01-.8-.138L5.762 8.63a.573.573 0 01.138-.8c.167-.117.321-.258.592-.211a.57.57 0 01.37.234l3.223 4.569a.574.574 0 01-.138.8zm1.234-1.584L7.97 7.086c.596-.89 1.422-1.719 2.415-2.42.993-.7 2.052-1.2 3.09-1.464l3.21 4.551c-.63.94-1.479 1.759-2.415 2.42-.935.659-1.991 1.185-3.09 1.465zm3.31.006a12.056 12.056 0 001.1-.778l2.368 3.302-1.1.776-2.369-3.3zm3.152 4.395l1.102-.776.785 1.095-1.101.776-.785-1.095zm4 3.609c-.102.587-.868.765-1.215.274 0-.002-.002-.003-.003-.005l-1.21-1.687 1.1-.777 1.215 1.694a.67.67 0 01.113.5z"/></g><defs><clipPath id="clip0_55_29451"><path fill="#fff" d="M0 0h23v23H0z"/></clipPath></defs></svg>