<svg width="21" height="19" fill="none" xmlns="http://www.w3.org/2000/svg"><path fill-rule="evenodd" clip-rule="evenodd" d="M11.218 3.585a.718.718 0 00-.512-.688L2.356.392A1.679 1.679 0 00.197 1.998v12.374c0 .741.486 1.394 1.195 1.606l8.9 2.67a.72.72 0 00.926-.688V3.585zm-1.437.535v12.874l-7.976-2.393a.239.239 0 01-.17-.229V1.998a.24.24 0 01.308-.229L9.781 4.12z" fill="#6F7990"/><path fill-rule="evenodd" clip-rule="evenodd" d="M10.293 2.897a.718.718 0 00-.512.688V17.96a.72.72 0 00.926.688l8.9-2.67a1.677 1.677 0 001.195-1.606V1.998A1.679 1.679 0 0018.643.392l-8.35 2.505zm.926 1.223l7.837-2.35a.238.238 0 01.309.228v12.374c0 .106-.07.2-.171.23l-7.975 2.392V4.12z" fill="#6F7990"/><path fill-rule="evenodd" clip-rule="evenodd" d="M13.582 6.93l3.833-1.15a.719.719 0 00-.414-1.376l-3.833 1.15a.719.719 0 00.414 1.376zM7.831 5.554l-3.833-1.15a.719.719 0 00-.414 1.376l3.833 1.15a.719.719 0 00.414-1.376zm5.751 4.826l3.833-1.15a.719.719 0 00-.414-1.376l-3.833 1.15a.719.719 0 00.414 1.376zM7.831 9.004l-3.833-1.15a.719.719 0 00-.414 1.376l3.833 1.15a.719.719 0 00.414-1.376zm5.751 4.826l3.833-1.15a.719.719 0 00-.414-1.376l-3.833 1.15a.719.719 0 00.414 1.376zm-5.751-1.376l-3.833-1.15a.719.719 0 00-.414 1.376l3.833 1.15a.719.719 0 00.414-1.376z" fill="#6F7990"/></svg>