<svg width="20" height="20" fill="none" xmlns="http://www.w3.org/2000/svg"><g clip-path="url(#clip0_55_29510)" fill="#02CC9B"><path d="M13.713 5.64H8.746a.793.793 0 100 1.586h4.967a.792.792 0 100-1.585zm1.902 3.832h-6.87a.793.793 0 100 1.585h6.87a.793.793 0 100-1.585z"/><path d="M19.207.674H5.178a.793.793 0 00-.792.792v7.477h-1.4A2.989 2.989 0 000 11.93v4.412A2.989 2.989 0 003.383 19.3H16.46A3.544 3.544 0 0020 15.76V1.466a.793.793 0 00-.793-.792zM4.386 16.34c0 .68-.487 1.247-1.13 1.374h-.27v.026a1.4 1.4 0 01-1.4-1.4v-4.412c0-.772.628-1.4 1.4-1.4h1.4v5.812zm14.029-.581c0 1.06-.895 1.955-1.955 1.955H5.636c.214-.412.335-.879.335-1.374V2.259h12.444v13.5z"/><path d="M13.713 13.065H8.746a.793.793 0 100 1.586h4.967a.792.792 0 100-1.586z"/></g><defs><clipPath id="clip0_55_29510"><path fill="#fff" d="M0 0h20v20H0z"/></clipPath></defs></svg>