<svg width="46" height="15" fill="none" xmlns="http://www.w3.org/2000/svg"><g clip-path="url(#clip0_0_1275)"><path d="M29.615.023c-3.14 0-5.944 1.645-5.944 4.683 0 3.484 4.975 3.724 4.975 5.474 0 .737-.836 1.397-2.263 1.397-2.026 0-3.54-.922-3.54-.922l-.648 3.066s1.744.778 4.06.778c3.432 0 6.133-1.725 6.133-4.814 0-3.682-4.996-3.915-4.996-5.54 0-.577.686-1.21 2.109-1.21 1.606 0 2.916.67 2.916.67l.634-2.96S31.625.023 29.615.023zM.895.247L.82.694s1.32.244 2.51.731c1.531.559 1.64.884 1.898 1.894l2.81 10.95h3.768L17.611.247h-3.76L10.123 9.78 8.6 1.699C8.46.774 7.754.247 6.888.247H.896zm18.227 0l-2.949 14.022h3.585L22.696.247h-3.574zm19.992 0c-.864 0-1.322.468-1.658 1.285l-5.252 12.737h3.76l.727-2.123h4.58l.441 2.123h3.317L42.136.247h-3.022zm.49 3.788l1.113 5.262h-2.985l1.871-5.262z" fill="#1434CB"/></g><defs><clipPath id="clip0_0_1275"><path fill="#fff" transform="translate(.796)" d="M0 0h44.254v14.521H0z"/></clipPath></defs></svg>