<svg width="35" height="28" fill="none" xmlns="http://www.w3.org/2000/svg"><path d="M6.37 27.072V25.27a1.07 1.07 0 00-1.129-1.142 1.113 1.113 0 00-1.009.51 1.055 1.055 0 00-.95-.51.95.95 0 00-.84.427V24.2h-.625v2.872h.63V25.48a.672.672 0 01.704-.763c.414 0 .624.27.624.757v1.598h.631V25.48a.677.677 0 01.703-.763c.427 0 .63.27.63.757v1.598h.632zm9.337-2.872h-1.022v-.87h-.63v.87h-.583v.571h.583v1.31c0 .666.258 1.063.997 1.063.276 0 .546-.076.78-.222l-.18-.535c-.167.1-.357.156-.552.162-.313 0-.415-.192-.415-.48V24.77h1.022v-.57zm5.328-.072a.847.847 0 00-.756.42V24.2h-.62v2.872h.626v-1.61c0-.475.204-.739.612-.739.134-.002.267.023.39.072l.193-.589a1.334 1.334 0 00-.445-.078zm-8.056.3a2.147 2.147 0 00-1.171-.3c-.727 0-1.196.349-1.196.92 0 .468.349.756.991.847l.295.041c.342.049.504.139.504.3 0 .223-.228.35-.654.35a1.53 1.53 0 01-.956-.301l-.294.487c.364.254.8.384 1.244.372.829 0 1.31-.39 1.31-.937 0-.505-.38-.77-1.004-.86l-.294-.041c-.27-.036-.487-.09-.487-.283 0-.21.204-.336.547-.336.314.005.622.09.895.246l.27-.504zm16.737-.3a.847.847 0 00-.757.42V24.2h-.618v2.872h.624v-1.61c0-.475.205-.739.613-.739.134-.002.267.023.39.072l.193-.589a1.335 1.335 0 00-.445-.078zm-8.05 1.508a1.45 1.45 0 001.532 1.508c.375.019.744-.103 1.034-.342l-.3-.505c-.217.165-.48.255-.752.258a.92.92 0 010-1.838c.272.003.535.094.751.258l.3-.504a1.505 1.505 0 00-1.033-.343 1.452 1.452 0 00-1.532 1.508zm5.852 0V24.2h-.625v.349a1.089 1.089 0 00-.907-.42 1.51 1.51 0 000 3.015 1.09 1.09 0 00.907-.42v.348h.625v-1.436zm-2.325 0a.87.87 0 11.524.852.862.862 0 01-.524-.852zm-7.54-1.508a1.509 1.509 0 00.042 3.016c.429.015.848-.128 1.178-.402l-.307-.463c-.237.19-.53.296-.835.3a.797.797 0 01-.859-.703h2.133c.006-.078.012-.156.012-.24-.006-.895-.559-1.508-1.364-1.508zm-.012.559a.713.713 0 01.727.697h-1.49a.74.74 0 01.763-.697zm15.674.95v-2.59h-.625v1.502a1.089 1.089 0 00-.907-.42 1.51 1.51 0 000 3.015 1.09 1.09 0 00.907-.42v.348h.625v-1.436zm1.042 1.019a.287.287 0 01.205.083.287.287 0 01.085.202.281.281 0 01-.085.201.3.3 0 01-.205.085.29.29 0 01-.293-.286.28.28 0 01.085-.202.294.294 0 01.208-.084zm0 .508a.213.213 0 00.156-.065.224.224 0 00-.07-.362.224.224 0 00-.245.047.224.224 0 00.159.38zm.016-.356a.12.12 0 01.08.022.075.075 0 01.027.062c0 .01-.002.02-.005.03a.072.072 0 01-.017.024.105.105 0 01-.063.027l.087.1h-.068l-.08-.1h-.026v.1h-.057v-.265h.122zm-.065.05v.07h.065a.065.065 0 00.035-.009.03.03 0 00.014-.027.03.03 0 00-.014-.026.065.065 0 00-.035-.009h-.065zm-3.318-1.222a.869.869 0 11.871.92.862.862 0 01-.87-.92zm-21.099 0V24.2h-.625v.349a1.088 1.088 0 00-.907-.42 1.51 1.51 0 000 3.015 1.09 1.09 0 00.907-.42v.348h.625v-1.436zm-2.325 0a.87.87 0 11.871.92.863.863 0 01-.87-.92z" fill="#313131"/><path d="M22.233 2.313h-9.464V19.32h9.464V2.313z" fill="#FF5F00"/><path d="M13.368 10.815a10.796 10.796 0 014.13-8.503 10.815 10.815 0 100 17.006 10.796 10.796 0 01-4.13-8.503z" fill="#EB001B"/><path d="M35 10.816a10.815 10.815 0 01-17.498 8.502 10.817 10.817 0 000-17.005A10.815 10.815 0 0135 10.815zm-1.038 6.704v-.348h.14V17.1h-.357v.07h.14v.348h.077zm.693 0v-.42h-.11l-.125.288-.126-.288h-.11v.42h.078v-.317l.118.273h.08l.118-.274v.317h.077z" fill="#F79E1B"/></svg>