<svg width="52" height="15" fill="none" xmlns="http://www.w3.org/2000/svg"><path fill-rule="evenodd" clip-rule="evenodd" d="M13.875 0v.006c-.006 0-2.011-.006-2.546 1.91-.49 1.756-1.871 6.606-1.91 6.74h-.381s-1.413-4.958-1.91-6.747C6.594-.006 4.583 0 4.583 0H0v14.575h4.583V5.919h.381l2.674 8.656h3.182l2.673-8.65h.382v8.65h4.582V0h-4.582zm16.739 0S29.27.12 28.64 1.528l-3.246 7.128h-.382V0H20.43v14.575h4.328s1.407-.127 2.037-1.527l3.182-7.129h.382v8.656h4.583V0h-4.328zm6.365 6.619v7.956h4.582V9.928h4.965a4.958 4.958 0 004.678-3.31H36.979z" fill="#4DB45E"/><path fill-rule="evenodd" clip-rule="evenodd" d="M46.526 0h-10.19a7.321 7.321 0 007.198 5.983h7.854a4.9 4.9 0 00.102-1.019A4.963 4.963 0 0046.526 0z" fill="url(#paint0_linear_0_1255)"/><defs><linearGradient id="paint0_linear_0_1255" x1="36.337" y1="2.991" x2="51.49" y2="2.991" gradientUnits="userSpaceOnUse"><stop offset=".3" stop-color="#00B4E6"/><stop offset="1" stop-color="#088CCB"/></linearGradient></defs></svg>