<svg width="22" height="22" fill="none" xmlns="http://www.w3.org/2000/svg"><path fill-rule="evenodd" clip-rule="evenodd" d="M10.66 1.897c-2.38 0-2.679.01-3.614.053-.932.043-1.569.19-2.126.407a4.29 4.29 0 00-1.552 1.01A4.301 4.301 0 002.356 4.92c-.217.558-.365 1.194-.407 2.127-.041.934-.052 1.233-.052 3.613s.01 2.677.053 3.612c.042.932.19 1.57.407 2.126a4.293 4.293 0 001.01 1.552 4.29 4.29 0 001.552 1.012c.557.216 1.194.364 2.127.407.934.042 1.233.053 3.612.053 2.38 0 2.678-.01 3.612-.053.933-.043 1.57-.19 2.128-.407a4.287 4.287 0 001.551-1.012 4.302 4.302 0 001.011-1.552c.216-.557.364-1.194.407-2.126.042-.935.053-1.233.053-3.612 0-2.38-.01-2.678-.053-3.613-.043-.933-.191-1.57-.407-2.127a4.301 4.301 0 00-1.01-1.552 4.283 4.283 0 00-1.552-1.01c-.56-.217-1.196-.364-2.129-.407-.934-.043-1.232-.053-3.612-.053h.002zm-.787 1.579h.786c2.34 0 2.617.008 3.54.05.855.04 1.319.182 1.628.302.409.159.7.349 1.007.655.306.307.496.6.655 1.008.12.308.263.772.302 1.626.042.924.051 1.201.051 3.54 0 2.338-.009 2.616-.051 3.54-.04.854-.182 1.317-.302 1.626-.159.409-.349.7-.655 1.006a2.71 2.71 0 01-1.007.655c-.309.12-.773.263-1.627.302-.924.042-1.201.051-3.54.051-2.34 0-2.618-.009-3.541-.05-.854-.04-1.318-.183-1.627-.303a2.715 2.715 0 01-1.008-.655 2.716 2.716 0 01-.656-1.007c-.12-.309-.262-.772-.301-1.627-.042-.923-.05-1.2-.05-3.54s.008-2.616.05-3.54c.039-.854.182-1.318.301-1.627.16-.408.35-.7.656-1.007a2.72 2.72 0 011.008-.656c.309-.12.772-.263 1.627-.302.808-.037 1.121-.047 2.754-.05v.003zm5.463 1.455a1.051 1.051 0 100 2.102 1.051 1.051 0 000-2.102zM10.66 6.159a4.5 4.5 0 100 9 4.5 4.5 0 000-9zm0 1.58a2.92 2.92 0 110 5.84 2.92 2.92 0 010-5.84z" fill="url(#paint0_linear_0_370)"/><defs><linearGradient id="paint0_linear_0_370" x1="1.897" y1="19.421" x2="19.42" y2="1.897" gradientUnits="userSpaceOnUse"><stop stop-color="#F7A708"/><stop offset="1" stop-color="#C20E91"/></linearGradient></defs></svg>