<svg width="172" height="43" fill="none" xmlns="http://www.w3.org/2000/svg"><path d="M97.634 31.461a11.69 11.69 0 01-2.49 7.88 9.57 9.57 0 01-13.71 0 11.73 11.73 0 01-2.49-7.9c0-3.333.833-5.953 2.5-7.86a8.679 8.679 0 016.86-2.87 8.51 8.51 0 016.85 2.89 11.66 11.66 0 012.48 7.86zm-17.1 0c0 3 .66 5.31 2 7a8.001 8.001 0 0011.51 0c1.333-1.62 2-3.953 2-7s-.667-5.353-2-6.92a7 7 0 00-5.74-2.38 7.1 7.1 0 00-5.76 2.43c-1.34 1.6-2.01 3.89-2.01 6.87zm35.66 10.489h-1.48l-12.38-18.57h-.12c.12 2.22.18 3.88.18 5v13.57h-1.39V21.04h1.46l12.37 18.53h.09c-.09-1.71-.13-3.34-.13-4.89V21.04h1.42l-.02 20.91zm4.47 0V21.04h1.45v19.53h10v1.38h-11.45zm13.578 0V21.04h1.45v20.91h-1.45zm21.114 0h-1.47l-12.38-18.57h-.12c.12 2.22.17 3.88.17 5v13.57h-1.4V21.04h1.46l12.39 18.53h.09c-.09-1.71-.13-3.34-.13-4.89V21.04h1.41l-.02 20.91zm15.898 0h-11.43V21.04h11.43v1.34h-10v7.91h9.41v1.35h-9.41v9h10v1.31z" fill="#283356"/><path d="M16.233 20.781v13.94a7.111 7.111 0 01-2.18 5.49 8.33 8.33 0 01-5.93 2 8.48 8.48 0 01-5.89-2 7.001 7.001 0 01-2.23-5.33v-14.1h4.36v14a4.09 4.09 0 001 3 3.87 3.87 0 002.76.94c2.453 0 3.7-1.29 3.74-3.87v-14.07h4.37z" fill="#02CC9B"/><path d="M37.004 34.9a7.51 7.51 0 01-2.53 5.38 8.82 8.82 0 01-6 2 8 8 0 01-6.47-2.77 11.29 11.29 0 01-2.33-7.53v-1.29a12.63 12.63 0 011.08-5.38 7.999 7.999 0 013.07-3.56 8.52 8.52 0 014.65-1.25 8.61 8.61 0 015.9 2 8.09 8.09 0 012.63 5.47h-4.37a4.38 4.38 0 00-1.15-3 4.17 4.17 0 00-3-.93 3.69 3.69 0 00-3.27 1.57 8.75 8.75 0 00-1.11 4.84v1.6a9.53 9.53 0 001 5 3.68 3.68 0 003.29 1.58 4.3 4.3 0 003-.92 4.18 4.18 0 001.15-2.86l4.46.05zm14.77 2.69h-7.65l-1.45 4.36h-4.67l7.88-21.16h4l7.93 21.16h-4.57l-1.47-4.36zm-6.47-3.53h5.29l-2.66-7.9-2.63 7.9z" fill="#283356"/><path d="M71.244 19.16h4.31c0-4.34-2.14-7.12-6.35-8.25-3.69-1-14-2-15.73-2.11a6.2 6.2 0 01-2.84-1.33l-4.86-4.86a8.86 8.86 0 00-6.3-2.61h-21.4a8.93 8.93 0 00-6.71 3l-9.14 10.52a8.88 8.88 0 00-2.22 5.86v3.59h4.3v-3.59a4.56 4.56 0 011.14-3l9.16-10.5a4.6 4.6 0 013.47-1.57h21.4a4.58 4.58 0 013.26 1.35l4.86 4.87a10.47 10.47 0 004.86 2.46l.43.08c3.22.29 12.24 1.2 15.2 2 2.3.62 3.16 1.73 3.16 4.09z" fill="#02CC9B"/><path d="M67.692 34.158h-3.48v7.75h-4.36v-21.12h7.87a8.85 8.85 0 015.78 1.67 5.761 5.761 0 012 4.72 6.5 6.5 0 01-1 3.62 6.34 6.34 0 01-2.83 2.3l4.58 8.65v.2h-4.59l-3.97-7.79zm-3.48-3.53h3.52a3.61 3.61 0 002.54-.83 3 3 0 00.91-2.31 3.173 3.173 0 00-.86-2.33 3.471 3.471 0 00-2.6-.86h-3.51v6.33z" fill="#283356"/></svg>