<svg width="55" height="65" fill="none" xmlns="http://www.w3.org/2000/svg"><path fill-rule="evenodd" clip-rule="evenodd" d="M.322.001h54.621v51.117l-.025.511-.026.512-.051.512-.077.486-.102.486-.128.486-.128.435-.153.46-.18.435-.204.435-.23.384-.23.41-.282.383-.282.358-.306.333-.333.332-.333.307-.383.307-.384.282-.41.256-.434.23-.435.23-.46.205-.513.179-.486.153-.537.154-.537.128-.589.077-.562.102-.614.051-.614.026-.64.025h-6.78l-.435.026h-.435l-.409.051-.41.026-.383.05-.384.078-.383.05-.359.078-.358.076-.358.102-.358.103-.333.102-.307.102-.332.128-.307.128-.307.128-.282.154-.307.128-.281.153-.256.154-.282.153-.255.18-.256.178-.256.18-.256.178-.23.18-.23.204-.23.205-.23.18-.206.204-.46.435-.435-.435-.23-.205-.23-.179-.23-.205-.23-.204-.231-.18-.256-.178-.256-.18-.256-.179-.256-.179-.255-.153-.282-.154-.307-.153-.281-.128-.282-.154-.307-.128-.307-.128-.332-.127-.307-.103-.359-.102-.332-.102-.333-.103-.358-.076-.384-.077-.383-.051-.384-.077-.384-.051-.41-.026-.409-.051h-.434l-.435-.026h-6.78l-.64-.025-.614-.026-.614-.051-.588-.102-.563-.077-.537-.128-.537-.154-.512-.153-.46-.18-.487-.204-.46-.23-.41-.23-.409-.256-.384-.282-.383-.307-.333-.307-.333-.332-.307-.333-.281-.358-.281-.384-.23-.409-.23-.384-.206-.435-.179-.435-.153-.46-.154-.435-.102-.486-.102-.486-.077-.486-.051-.512-.026-.512V0z" fill="#161413"/><path fill-rule="evenodd" clip-rule="evenodd" d="M.628.332h53.956v50.783c0 5.475-3.505 9.338-10.31 9.338H37.93c-4.886 0-8.007 1.69-10.31 3.966-2.302-2.277-5.45-3.965-10.31-3.965h-6.345C4.16 60.453.628 56.59.628 51.114V.332z" fill="#A8002C"/><path fill-rule="evenodd" clip-rule="evenodd" d="M12.398 46.151c.41-1.534 1.356-2.328 2.917-2.583 1.509-.256 3.172-1.1 4.988-1.945.768-.563.87-.307.307.793l-.87.998c-.46.512-.562 1.049.077 1.56.87.436 1.228.845 1.1 1.203-.946-.256-1.816-.128-2.558.563-.537-.154-1.177-.077-2.072.358-.46-.256-.972-.281-1.586-.102-.154-.384-.589-.486-1.33-.358-.206-.23-.538-.384-.973-.486zm10.464 0c-.921-.946-1.024-1.79.025-2.507.589-.409 1.458-1.356 2.533-2.788.716-.052 1.356-.205 2.072-.307 2.866-.358 5.577-.972 7.752-2.175.41-.128.716-.051.896.256l1.688 2.226-.486.179 1.28.972c-.231.18-.078.307.204.41-.154.23-.051.46.179.434.102.307.333.768-.333.128-.41-.205-.46 0-.128.64l.691.998c.051.46.23.844.589 1.176l.563 1.152c0 .179.102.358.153.511.077.435.179.665.537.717-.358.69-.818 1.33-1.586 1.74-1.51.818-2.712.485-2.584-1.51.077-1.075.281-1.97.307-3.07.435-1.714.026-2.584-1.458-2.686-.768.025-1.356.025-1.791.332-.41.282-.998.18-1.79-.281-1.536-1.152-2.687-1.766-3.455-1.766.742.845.947 1.689.358 2.533.614.281.589.563-.025.844-1.484.052-3.147-.255-4.887-.741-.563-.103-.665 0-.281.306 1.28.512 1.97 1.28 1.97 2.354-.819.026-1.51.077-1.893.154-.358.23-.742.205-1.1-.23zm14.506 8.264c-.435.23-.538.486-.128.742.281.18.435.205.486.077.511-.103-.205-.384-.358-.819zm-13.38-1.126c-.282.205-.41.435-.256.742l.562.486c.23-.204.18-.511-.076-.716-.128-.102-.205-.281-.23-.512zm-6.55-2.686c.41.18.41.563-.102.793-.384-.153-.358-.486.102-.793zm-7.47-15.197c1.841 2.124 2.174 4.529.665 7.317-.563 1.356-.486 2.226.255 2.636.205-.461.384-1.178.487-1.92.153-1.15.895-1.023 1.867-2.02 1.05-1.075.742-2.2.64-3.991-.18-3.838.614-6.064 1.74-7.317-2.866-.794-4.606 1.33-5.655 5.295zm1.816-31.749c-.333.051-.46.281-.41.665l2.278 3.224c.076.153.23.307.204.435-.179.435-.256.716.128 1.1l.768.742c.076.537.179.972.358 1.125-.18.359.05.691.358 1.024.077.102.102.23.23.332l.128 1.1c-1.074.896-1.612 1.561-1.714 1.97-.051.23-.102.41.051.538l1.51-.154c.128.077.281.102.332.205.23.537-.076 1.381-.895 1.484-1.868.46-3.224 1.1-2.686 2.353.69.896.332 1.689-.845 2.405-.281.256-.409.589-.358 1.023-.333.282-.588.717-.819 1.203-.179.512-.179.742.18.69 2.609-.87 5.167-1.227 6.984.282.895.742.742 1.126 2.149 1.203-.154.588 0 .92.512 1.023l.076.665c-.563.128-1.202.128-1.765.282-.64.153-1.253.409-1.816.409-.487-.384-1.05-.614-1.51-.895-2.354-1.459-4.324-1.536-6.038.46-.895 1.049-1.714 2.482-2.379 4.682-.128.383-.435.537-1.049.179-1.228-.998-1.458-1.893-.844-2.482.87-.819 1.202-.332.742.103l.025.102c.666 0 .921.46 1.177.947.563-1.459.256-2.457-.537-3.25l-.18-.025.078 1.253c-1.356-.281-2.098.768-2.2 1.74-.077.947.358 1.79 1.586 2.507.69.23.895 1.024.358 1.817-1.33 1.944-1.126 4.016.077 6.677l.153-.077c.256-2.916.87-4.4 1.842-4.681.307-.103.588-.308.844-.64.282-.435.435-.384.64.077.537 1.228.486 2.404-.256 3.581-1.688 2.738-1.765 4.836.64 6.499l.076.204-.64.819c-.204.333-.05.742.513 1.202.409.486.614 1.28.741 2.277-.204.307-.23.691-.102 1.126.358.512 1.228.793 2.456.665.128-.025.102-.128.102-.256.103-.563-.281-.972-.69-1.663-1.203-1.074-1.459-2.097-1.075-3.095l.18-.282c.946.333 2.148.717 3.248.87-.46.947-.409 2.124 0 2.814.768 1.33 1.587 1.945 3.147 1.817 2.072-.18 3.096-1.893 2.328-4.221.742-.41 1.228-.384 1.484.076-.025 1.05.435.717.46 1.74-1.227 1.075-1.688 1.995-.357 2.584.69.69.306.947-.589.998-.946-.23-1.637-.18-1.765.588-.87.051-1.126.563-1.1 1.382.256-.614.742-.666.997-.512.46-.026.947.102 1.357-.077.383-.179.818-.179 1.304.026.256 0 .435.102.563.307.614.64.537-.077 1.893.742.333.025.896 0 .998.537l.128-.486c.102-.18.051-.384-.153-.563-.435-.512.255-.537 1.458-.307.64.282 1.228.41 1.688.333.537-.538.665-.205.768.511.383-1.049.128-1.611-.921-1.663.179-.562.256.282.64-.409.332-.153.665 0 .997.333.077-.512-.23-.819-.895-.973-.154-.434-.486-.46-.947-.025-1.944-.512-2.149-1.689-1.049-1.919.589-.153.819.46 1.28.64.357.128.537.076 1.023.128.537.025 1.023.128 1.356.358l.383.128c.205-.154.41-.128.666.102.281.41.562.46.818.128.768-.614 1.919-.614 1.842-.23-.025.563.077.767.281.716.18.026.256.256.256.665-.742-.025-1.253.103-1.253.64-.69.204-.665.69-.358 1.33-.077-1.228.972-.23 1.995-.895l.717-.077c.076.358.409.512 1.048.486.23-.102.589-.102.82-.153 1.253-.333 2.25-.256 2.992.767.154-.307.128-.64-.076-.947.87-.588 1.816-.358 1.253.589.512-.256 1.024-1.56.358-1.535.282-.768 1.433-.128 1.1.435.487-.256.563-.64-.025-1.126-.077-.435-.435-.563-1.075-.384-.358-.614-.818-.64-1.432-.102-.614.281-1.1.307-1.407-.102-.333-.537-.256-.793.204-.614.23.077.333-.205.614-.742.103-.23.307-.41.46-.717.666-.102 1.203-.69 1.894-1.867.486-.23.716-1.177.742-2.66.205.101.46.025.793-.18-.23-.026-.332-.102-.332-.69h.64c.255-.103.357-.205.332-.333 0-.103-.256-.077-.435-.358-.077-.359-.282-.717-.665-1.075l-.614-.998c-.435-1.381-.947-2.174-1.587-1.663l-.179-.102c-.486-.537-.844-1.254-1.125-2.047.025-.972-.998-1.023-1.535-.102l-.154-.768-.256.41-1.611-2.328c.179-.026.486-.205.665-.23 1.97-.154 3.94-.742 5.96-1.868l1.433-.435c.64-.256.845-.051 1.177.281l1.459 1.51c.28.307.28.588.127.895-.153.307.205.717.717 1.151.46.512.511 1.203.102 2.073-.23.563-.179.92.154 1.1l.997.716c.666.537.998.358.973-.588a3.535 3.535 0 00-.487-1.433c-.332-.588-.562-1.151-.588-1.74-.026-1.177-.18-1.79-.665-2.2a8.154 8.154 0 01-1.433-1.816c-.128-.384-.23-.614-.435-.717-.05-1.228-.946-1.842-1.51-1.509-.485.102-.946.153-1.457.077v-.282c.64-.358 1.74-1.484 2.84-2.712.409-.511.613-.307 1.023.103l1.586 1.663c-.051.818.077 1.356.64 1.304.383.666.562 1.305.204 1.587-.358.307-.64.511-.64.946.077.64.82 1.305 1.638 1.612.077.026.204-.026.256-.128.23-.563.256-1.228.025-1.893l-.281-.947c-.051-.383 0-.69.026-.972.076-.742.102-1.151-.691-1.714-.998-1.023-1.842-2.072-2.533-3.172.026-1.459-1.228-1.842-2.021-.256l-1.535 1.074c-.384.256-.64-.153-.64-.563-.153-1.918-1.458-3.453-2.89-4.937-.768-2.328-1.817-4.273-2.201-6.063 1.458.153 2.558.434 2.993.87.64.69 1.459 1.048 1.663.562.077-.153-.383-.435-.614-.665.256 0 .589.23.947.588.64 0 .844-.486.665-1.15.077-.538.051-.947-.179-1.127l-.537-.306c-.896-.973-1.638-1.945-2.252-3.02a.619.619 0 01-.102-.332c0-.435-.128-.819-.563-1.202l.205-.103-.026-.153.46.102-.46-.768c-.256-.946-1.125-1.1-2.43-.716-.18.051-.41-.153-.64-.41-.819-.792-1.688-1.227-1.381-.639.05.103.307.384.025.358l-1.407-.23c-.307-.051-.358.051-.281.205.255.281.511.537.614.844l-1.791.103c-.358.025-.665.179-.998.153-.972-.819-2.174-.205-3.428.742l-.18-.077-.025-1.458h.154l-.128-.947h.102c.102-1.432-.179-2.353-.716-2.993-.102-.435.332-.384.435-.512.409-.511.384-1.1.384-1.407-.077-.614-.282-.818-.589-.614h-.358c-.384-.051-.69-.179-.844-.358-.41-.281-.793-.281-1.177-.026-1.842.46-2.175 1.894-4.426.921-.256-.025-.307.077-.205.282.384.512.921.844 1.51 1.1-.205.153-.614.179-1.28.128.384.512 1.126.767 2.277.742.435.256.947.153 1.51-.077.307-.179.332-.077.128.333-.589.486-.998 1.432-1.075 3.146-.23.359-.358.742-.435 1.177-.844-.23-1.586-.383-1.893-.128l-.333-.025c-.742-.563-1.458-.537-2.046-.154l-1.305.998c-.486.333-.895.358-.972-.051l-.537-1.151c.025-.819-.282-1.203-.845-1.254-.256-.23-.434-.512-.486-.819l-.383-.486c.127-.435-.052-.588-.359-.588-.332 0-.64-.051-.818-.18l-2.661-3.274z" fill="#161413"/><path fill-rule="evenodd" clip-rule="evenodd" d="M48.702 41.55l.255-.537c.128-.18.23-.18.307-.026l.614.563c-.127.128-.409.128-.614.18l.205.332-.205.102-.076.282c-.384-.307-.614-.589-.486-.896zm.537-1.842c.077 0 .153.23.153.486s-.076.486-.153.486c-.103 0-.154-.23-.154-.486 0-.255.051-.486.154-.486zm-.358-2.072c.05-.051.179.051.255.18.103.152.128.306.077.332-.05.025-.179-.052-.256-.205-.102-.154-.128-.281-.076-.307zm1.636-2.508c-.077-.077-.154-.051-.23.025-.282.333-.333.589-.18.819l.563.435c.18.154.384.077.282-.077l-.205-.281c.128.05.23.179.358.179.102 0 .128-.154 0-.256-.205-.205-.256-.282-.128-.41.051-.05.051-.102-.025-.153l-.435-.281zm0-2.38c-.256-.306-.205-.486.127-.46-.307-.486.026-.588.333-.077.154.23.18.691.128 1.228-.026.154-.205.205-.256 0a2.485 2.485 0 00-.332-.69zm.204 2.022l.128-.589c.026-.153.077-.128.154 0 .204.256.383.512.434.947.052.179.026.281-.102.307-.153.025-.281-.051-.409-.18-.18-.204-.23-.332-.205-.485zm-9.056-6.548c.026-1.075.154-1.944.154-2.738 0-.332.23-.332.23.051.051.845-.051 1.715-.154 2.61 0 .128-.23.358-.23.077zm1.484 4.272c.051 0 .077.051.077.103 0 .05-.026.102-.077.102-.051 0-.077-.051-.077-.102 0-.052.026-.103.077-.103zm-2.533-3.786l.103-.077c.025-.025.076-.025.102.026l.384.486a.078.078 0 010 .102l-.103.077c-.025.026-.076.026-.102-.026l-.41-.486c-.025-.025-.025-.076.026-.102zm3.684 2.737l.154-.997-.18.358c-.153 0-.178-.154-.204-.46-.026-.359 0-.487.205-.41l.128.333.102-.23c.18-.103.205 0 .128.306l-.051 1.1c-.102.154-.18.435-.282 0zm2.712-3.146c-.153-.205-.179-.46 0-.64a.407.407 0 01.563-.077c.154.077.205.18.205.256l-.307.102.383.103c.205.179.026.512-.153.23-.154-.153-.333-.179-.512-.077 0 .23-.05.282-.179.103zm-3.71 1.79c.052-.025.154.077.23.205.052.128.078.256 0 .282-.05.05-.153-.052-.204-.18-.077-.127-.077-.281-.026-.306zm-2.353-.204c.051-.026.153.05.23.179.077.153.077.281.026.307-.051.026-.154-.051-.23-.205-.077-.128-.077-.256-.026-.281zm.69-1.254c.18-.025.41.18.461.46.077.308-.051.564-.23.615-.205.025-.41-.154-.486-.46-.051-.308.051-.564.256-.615zm.333 1.689c-.102-.486.051-.563.23-.103.282.666.435 1.51.41 2.533 0 .384-.307.41-.333.051-.102-.895-.128-1.74-.307-2.481zm2.968.793a5.12 5.12 0 01.307-1.484c.077-.23.179-.256.307-.128.46-.742.358-.332.154.23l.127.077c.563-1.049.333-.204.282.256-.41.512-.691.614-.819.256l-.128.665c-.102.307-.179.358-.23.128zM10.144 48.919c-.18.69-.947.332-.563-.282.946-1.535 1.867-3.07 2.046-5.142.052-.742.512-1.075 1.1-1.407 1.254-.69 1.689-1.868 1.663-3.198-.281-5.782 1.33-8.315 3.813-9.313l-.077.23c-2.226 1.357-3.147 3.966-3.173 7.522-.025.793-.102 1.612 0 2.482l.077-.18c.077-2.097.077-3.888.333-5.116.281-1.356.716-2.175 1.151-2.763.153-.205.281-.46.435-.614.204-.205.435-.256.614-.435l-.026.18c-.844.843-1.56 1.918-1.893 3.325-.358 1.612-.384 3.48-.256 5.424-.025.281-.076.512-.179.716l.103-.051c.153-.307.23-.665.23-1.1-.18-2.354 0-4.733.844-6.396.588-1.151.947-1.586 2.584-2.507l-.051.179c-1.382.946-2.686 2.047-2.942 5.782l.076-.077c.256-2.84 1.28-4.938 3.173-5.705.665-.282 1.458-.23 2.328-.23l-.153.128c-1.33-.128-2.482.332-3.48 1.381l.154.051c.946-.972 2.046-1.51 3.428-1.202l-.102.204c-.973-.153-1.791.205-2.559.794v.102c.87-.589 1.663-.87 2.43-.717.256.026.333.23.256.538l-.153 1.407c-.026 1.356-.103 2.686-.435 3.889l-.128.102.128-2.354-.537 2.917c-.051.332-.282.281-.23-.026.127-.614.332-1.458.46-2.354-.128.026-.23.103-.256.282-.153 1.254-.358 2.277-.64 2.635.18-.793.282-1.586.307-2.38l-.153.129-.384 2.225c.282.154-.076.384-.179.103l.128-1.228-.102-.026-.538 1.97.18-1.356-.461 1.356h-.179l.23-1.151-.767 2.098c-.23.05-.256-.026-.077-.384l.486-1.433-.154.026c-.307 1.049-.537 1.79-.92 2.02l-.128.027c.537-.947.614-1.407.64-1.868-.282.895-.564 1.535-1.075 2.072-.077-.076.025-.307.332-.87l.282-.742c-.128-.153-.205-.102-.282.128-.179.64-.358 1.075-.69 1.484l.332-1.253-.051-.154c-.23.742-.537 1.382-.972 1.765l.204.103c.691-.46 1.638-.307 2.61-.742.205-.102.41-.154.537-.051l-.179.486-.179-.282c-.102.384-.256.742-.46.896l-.077-.563c-.41.895-.69 1.381-.716.947l.076-.538a2.02 2.02 0 00-.588 1.1c-.154-.025-.18-.332-.128-.767l-.256.946c-.23.051-.281-.204-.153-.767-.205.512-.384.87-.46.921-.103-.154-.129-.41-.052-.742l-.256.486c0 .358-.102.486-.256.46.077-.537.077-.741-.025-.613l-.307.818c-.18.102-.23-.102-.205-.563-.282.154-.205.717-.41.947-.153-.102-.178-.358-.153-.64-.128.435-.256.691-.435.717l-.051-.845c-.077.384-.18.691-.333.947l-.23-.614-.102.589c-.18.102-.333-.052-.435-.435-.026.793-.102 1.458-.614 1.79.051.205-.18.742-.486 1.356l.819-1.202c.179-.051.255.051.179.435l-.845 1.381c-.128.154-.281.103-.435 0-.179.691-.486 1.177-.793 1.638.358-.23.589-.717.87-1.382.051-.204.281.051.205.46l-.205.18.026.307-.256.025v.41l-.23.102c.23.563-.051.921-.614.64zm4.811-19.269l.998-.179-.051.205-.947-.026zm-9.312 7.807c.128-.486.46-.768.793-1.356.205-.333.281-.103.256.204-.435.64-.768.973-1.05 1.152z" fill="#fff"/><path fill-rule="evenodd" clip-rule="evenodd" d="M16.105 29.191c-1.637-1.458-3.249-2.226-4.451-1.97-2.277.512-3.377 2.61-4.043 4.605.384-.665.717-1.1 1.126-1.228-1.126 1.791-1.765 3.608-1.868 5.706a1.391 1.391 0 01-.409.665c-.716.537-.665.972-.793 1.407.154-.102.333-.435.563-.716.307-.384.665-.794.819-1.459.23-.895.332-1.79.511-2.456.256-.87.512-1.458.972-2.226.819-1.355 1.868-2.584 3.07-3.095v.102c-1.176.64-2.02 1.612-2.967 3.121-.23.384-.384.742-.589 1.28-.204.486-.41 1.048-.46 1.688-.154 1.382-.486 2.277-.87 2.814-.41.538-.665.768-.742 1.024-.051.127-.153.358-.128.614.895-1.689 1.305-1.535 1.689-2.738.537-1.842.179-3.735 2.635-6.421h.179c-1.177 1.355-1.97 2.635-2.38 5.372-.076.46-.153 1.1-.358 1.484-.307.588-.946 1.05-1.125 1.637l.128-.025c.307-.307.92-1.023 1.15-1.51.743-1.432.487-3.351 1.434-4.886 1.228-2.021 2.174-3.07 3.684-3.659l.179-.025c-2.073 1.1-2.43 1.893-3.326 3.121-.307.41-.537.819-.793 1.586-.23.666-.384 1.689-.512 2.482-.153 1.023-.537 1.637-.947 2.149-.23.281-.409.41-.588.665-.154.23-.307.665-.384.972l.128-.05c.563-1.51.896-1.178 1.305-1.69.23-.306.588-.92.69-1.637.154-1.483.461-2.61.973-3.582.537-1.074 1.381-2.25 2.328-3.044.435-.358.767-.563 1.356-.742h.128c-.691.46-1.151.588-1.689 1.1-.87.819-1.714 2.047-2.123 3.096-.435.998-.665 2.098-.793 3.223.025-.153.102.077.153-.05.46-2.661 1.407-4.53 2.61-5.732.665-.69 1.458-1.202 2.2-1.381l.486-.026c-1.126.307-2.2.845-3.019 2.098l.154-.025c.998-1.075 1.995-1.56 2.968-1.791l.153.025c-.665.23-1.28.486-1.663.845l.051.153c.742-.486 1.868-.742 3.198-.87zM5.874 40.372a1.215 1.215 0 01-.179-.64c.026-.306.256-.28.307-.076.051.384-.128.41-.128.716zm2.964 2.735l.256-.281c.128-.077.282-.102.384-.051-.026.128-.307.256-.64.332zm-.225.797l.332-.358c.18-.128.384-.153.538-.077-.052.154-.41.333-.87.435zm.024.408l.384-.333c.179-.102.409-.127.562-.025-.05.128-.486.281-.946.358zm.104.358l.358-.308a.575.575 0 01.538-.025c-.077.153-.46.281-.896.332zm.178.387l.23-.256c.128-.076.281-.102.384-.05-.026.102-.307.23-.614.306zm1.304-4.097l.204-.128c.103-.05.23-.025.282.026-.026.077-.256.102-.486.102zm-.334.437l.434-.205c.205-.025.41 0 .512.128-.102.128-.486.154-.946.077zm.257-1.051l.333-.256a.49.49 0 01.46 0c-.077.128-.41.205-.793.256zm.254-.614l.333-.077c.153 0 .307.077.358.18-.077.076-.384.025-.691-.103zm-.713 6.884l.23-.128c.103-.025.23 0 .282.026-.026.077-.256.128-.512.102zm.713-.796l-.563.077c-.23.102-.41.307-.435.486.179.051.588-.205.998-.563zm-.252-.255h-.435c-.205.051-.359.18-.384.333.128.05.486-.103.819-.333zm1.991 2.098l.255-.537a.715.715 0 01.563-.281c0 .179-.358.537-.819.818zm1.151-.538l.461-.18c.23 0 .435.077.538.205h-.026c-.026.154-.333.435-.716.64l.23-.435c.051-.051.102-.103.179-.154h-.153c-.103.128-.308.282-.538.435l.18-.358c.025-.051.076-.077.102-.102-.077-.026-.154-.026-.256-.051zm2.228.076c.153-.077.69.051.614.23-.026.154-.359.435-.717.691l.205-.46c.051-.077.102-.103.154-.154h-.18a2.349 2.349 0 01-.511.435l.153-.384c.026-.025.077-.05.102-.076-.05 0-.102-.026-.127-.026-.077.102-.23.205-.384.307l.102-.256c.18-.23.307-.205.589-.307zm3.301-.076c0-.435.333-.69.972-.767.742-.103 1.638.051 1.382.384h-.077l-.128.307-.281.511.179-.563.076-.281c-.076-.026-.204-.077-.332-.102l-.23.23-.384.435.307-.512.128-.205c-.051 0-.103-.025-.154-.025l-.23.23-.384.435.307-.486.128-.205h-.204l-.154.23-.358.461.256-.537.076-.128a4.225 4.225 0 00-.28.077l-.18.435.077-.41c-.23.103-.435.23-.512.486zm-2.406.356v-.051h.05l.64-.41c.435-.204.973-.28.896.078 0 .025-.051.076-.154.102 0 .128.026.281.026.435l-.18-.384h-.102c0 .205 0 .41.026.614l-.256-.563c-.05.026-.077.026-.128.026.026.281.026.588.026.895l-.358-.742v-.05c-.052.153-.077.332-.128.485l-.077-.511c-.077.204-.18.46-.256.716l-.025-.537v-.128.025z" fill="#fff"/><path fill-rule="evenodd" clip-rule="evenodd" d="M9.096 30.189l1.1-1.1c-.435.179-.819.537-1.1 1.1zm6.041 20.005c-.103-.256-.23-.487 0-1.075.204-.537.46-.69.614-.665.179.204-.051.614.05 1.126l-.408-.359.127.691-.306-.332-.077.614zm3.63.668c-.05-.103-.127-.154-.153-.154-.051.026 0 .128.051.23.077.103.154.154.18.154.025-.026 0-.128-.078-.23zm.001.458c-.102-.154-.204-.231-.256-.205-.05.025 0 .153.103.307.102.153.204.23.256.204.025-.025 0-.153-.103-.307zm-.233.434c-.076-.128-.153-.204-.179-.204-.05.025-.025.153.026.281.077.102.153.205.179.179.051 0 .026-.128-.026-.256zm-.225.44c-.052-.204-.18-.358-.23-.332-.052.025-.052.205.025.41.051.178.153.332.204.332.077-.026.077-.205 0-.41zm-2.998-.184c.153.026.256.077.256.128-.026.025-.154.05-.282.025-.128-.025-.256-.076-.23-.102 0-.051.128-.077.256-.051zm-.129-.33c.18.025.308.102.308.153 0 .051-.154.077-.333.051-.18-.05-.307-.102-.307-.153 0-.051.153-.077.332-.051zm-.073-.41c.205.05.358.127.358.178-.025.077-.204.103-.41.052-.204-.026-.383-.103-.357-.18 0-.05.179-.076.409-.05zm6.652-4.35c-.153-.511.41-.69.998-.434.46.179 1.023.256 1.765.102a3.314 3.314 0 011.126-.026c.384.205.358.384-.077.46-.819.768-1.433 1.561-1.535 2.329-.281-.384.307-1.356 1.228-2.558-.563.434-1.074.997-1.56 1.637.102-.41.434-.972.895-1.586-.998.742-1.689 1.842-1.586 3.889-.384-1.228-.128-2.405.665-3.557l-1.1 1.152.998-1.535-.614.204.05-.23-.383.18v-.257l-.512.41.103-.435c-.18-.103-.307.05-.46.255zm.458 2.894c-.05.307-.025.666.23 1.024.078.076.18-.026.129-.205-.18-.153-.282-.46-.358-.819z" fill="#fff"/><path fill-rule="evenodd" clip-rule="evenodd" d="M23.501 49.962c.051 0 .102.128.102.307 0 .18-.05.333-.102.333-.051 0-.102-.154-.102-.333 0-.179.05-.307.102-.307zm1.175-1.3c.025.026.025.154-.026.282-.077.153-.153.255-.205.23-.05 0-.025-.154.026-.282.077-.153.153-.255.205-.23zm.284-.614c.05.051 0 .154-.078.256-.077.128-.179.204-.204.179-.026-.026 0-.154.076-.256.077-.128.18-.179.205-.179zm9.59 1c.436.153.487.767.257 1.51.025-.615-.077-1.101-.256-1.51zm-2.224 3.141a1.203 1.203 0 00-.154-.384l.077.46.077-.076zm-5.012-7.723a.63.63 0 01.205.026l.205.332a.744.744 0 01-.23-.05l-.18-.308zm-.408 2.227c.052.026.128.154.154.282.025.128 0 .204-.051.179-.052-.026-.128-.128-.154-.256-.025-.128 0-.205.051-.205zm.381-.03c.025-.026.102.076.128.204.05.128.076.23.05.256-.05 0-.102-.077-.153-.205-.051-.153-.077-.255-.025-.255zm.457-.073c.05 0 .153.153.179.332.025.153.05.23-.077.23-.102.026-.077-.051-.102-.23-.026-.154-.026-.333 0-.333zm.436-.156c.026 0 .128.128.205.333.051.18.077.358.025.358-.05.026-.128-.102-.204-.307-.051-.205-.077-.358-.026-.384zm.463.001c.077-.026.153.154.204.358.052.23.026.41-.025.435-.051 0-.154-.179-.18-.384-.05-.23-.05-.409 0-.409zm.511.078c.052-.026.205.23.23.434.052.205.078.307-.076.333-.18.026-.128-.077-.18-.307-.025-.205-.025-.46.026-.46zm.334-.1c.077-.026.154.153.23.383.051.23.051.435 0 .435-.05.026-.153-.153-.204-.384-.052-.23-.077-.434-.026-.434zm.538-.13c.051 0 .128.23.128.512 0 .281-.051.511-.128.511-.051 0-.128-.23-.128-.511 0-.282.051-.512.128-.512zm.434.151c.05 0 .102.205.102.435 0 .256-.051.435-.103.435-.076 0-.102-.179-.102-.435 0-.23.026-.435.102-.435zm.434-.124c.051 0 .103.23.103.51 0 .282-.052.513-.103.513s-.102-.23-.102-.512c0-.282.051-.512.102-.512zm.461-.131c.077.026.102.256.077.588-.051.282-.102.537-.18.537-.05 0-.076-.255-.05-.562.025-.307.076-.563.153-.563zm.615-.026c.077 0 .077.256.026.563-.051.307-.128.537-.205.537-.05 0-.076-.256-.025-.563.05-.307.153-.537.204-.537zm.486-.281c.077 0 .205.384.154.742-.077.384-.18.69-.256.665-.076-.025-.025-.332.026-.69.05-.384.025-.742.076-.717zm-2.61 2.891c.025-.026.077.077.128.18.05.127.05.255.05.255-.025.026-.101-.077-.127-.18-.051-.127-.077-.255-.051-.255zm.357-.131c.052 0 .128.128.18.282.05.153.05.23-.026.255-.102.052-.077-.05-.128-.204-.051-.128-.051-.307-.026-.333zm3.454-1.072v.179l.23-.154a7.01 7.01 0 00.026-1.253c-.077.46-.153.87-.256 1.228z" fill="#fff"/><path fill-rule="evenodd" clip-rule="evenodd" d="M33.403 48.126c-.128.665-.154.87-.41 1.1.103-.41.052-.716.052-.793-.077.026-.128.051-.18.051v.077c.026.256.026.589-.28.998-.026-.358.127-.69.127-1.05-.077.026-.128.052-.205.078v.358a2.686 2.686 0 01-.204.563c.026 0 .128-.742.051-.896-.051.026-.128.026-.179.051v.103c-.026.077-.026.153-.077.153-.025 0-.05-.05-.05-.128-.026-.025-.026-.076-.052-.102-.026 0-.077 0-.128.026v.025c.026.077.026.128 0 .154-.026 0-.077-.077-.128-.154-.051 0-.102.026-.128.026.026.128.026.179-.077.23-.128.051-.128-.077-.153-.205-.077.026-.154.026-.23.052.025.102 0 .179-.026.179-.026.025-.077-.052-.128-.154h-.204c.025.102.025.154 0 .18-.026 0-.077-.052-.128-.154l-.026.025c0-.025 0-.025.026-.025-.026-.026-.026-.077-.052-.128-.076-.154-.102-.307-.076-.333.05-.026.128.077.204.256a.474.474 0 01.052.18.474.474 0 01.179-.052c0-.051 0-.077-.026-.102-.051-.205-.051-.384 0-.41.051-.025.128.128.18.333 0 .025.025.077.025.128.076-.026.127-.051.204-.077-.025-.128-.025-.18-.025-.256 0-.102 0-.153.025-.153.026-.026.154.153.205.358.051-.026.077-.026.128-.051-.026-.026-.026-.026-.026-.052-.05-.153-.05-.204-.05-.306-.026-.077-.026-.103 0-.128.025-.026.153.179.204.358 0 .025 0 .05.025.076.052-.025.077-.025.128-.05v-.41c0-.102.026-.154.052-.154.025 0 .05.052.076.128.026.103.051.23.077.358a.364.364 0 00.154-.05v-.205c.025-.077.025-.128.05-.128.026-.026.077.128.103.256.077-.026.128-.052.205-.077v-.282c0-.076.025-.153.05-.153.026-.026.052.026.052.102a.75.75 0 01.051.256c.051-.025.102-.025.154-.077 0-.153.025-.307.025-.409.026-.102.051-.179.077-.179.026-.026.051.026.051.128.026.102.026.23.026.384a.356.356 0 01.153-.051c.18-.717.41-1.69.41-2.559-.052-.102-.103-.179-.154-.281-.051.972-.128 1.79-.435 2.328a6.416 6.416 0 00-.025-2.61h-.077c.025 1.05.025 1.92-.256 2.507.102-.844.077-1.74-.256-2.737a.356.356 0 00-.153-.051c.23.205.179 1.023.076 1.151-.153-.486-.025-.64-.46-.972h-.128c.23.256.256.64.205.947-.128-.282-.333-.614-.538-.82h-.23c.333.385.333.461.282.768-.128-.332-.64-.563-.845-.716-.102 0-.128.026-.23.026.256.128.614.588.486.742-.179-.205-.563-.41-.716-.691-.103 0-.051.05-.154.05.051.154 0 .257.026.436-.23-.051-.358-.077-.64-.384-.05 0-.153-.025-.153 0 .025.077.128.256.153.333-.05-.077-.588-.358-.64-.435-.025-.026.103-.026-.204-.051.026.076.205.486.23.563a10.28 10.28 0 00-.486-.538c-.128-.025-.23-.025-.358-.051l-.23-.384c1.15.077 2.43.026 3.965-.256l1.433-.281c.486-.154.819.102.921.844l.077.819c.307.435.435.972.128 1.714.127.537.434.998.895 1.382.41.383.46.92-.026 1.688-.435 1.126-1.049 1.817-1.586 2.559 0 .025-.05.05-.05.076-.026.026-.052.051-.078.103.026-.052.051-.077.077-.128l-.077-.384a.679.679 0 01.128.281l.23-.383a11.993 11.993 0 01-.076-.41c.05.103.102.18.153.282.051-.103.128-.205.18-.307-.052-.128-.077-.282-.129-.435.077.102.128.204.18.307.076-.128.153-.256.204-.384-.025-.128-.077-.256-.102-.384.051.077.102.154.153.256.077-.23.128-.41.154-.563l-2.635 1.638c.23-.205.486-.384.716-.589l-.026.026c-.025-.154-.05-.333-.076-.486.076.128.128.281.179.409.051-.051.128-.102.179-.153l-.077-.615c.102.18.154.359.205.512.077-.051.153-.128.23-.179-.026-.256-.051-.537-.102-.819.128.23.204.46.256.691.076-.077.127-.128.204-.179a19.856 19.856 0 00-.128-1.151c.18.358.307.69.307.972.052-.051.103-.077.154-.128a11.176 11.176 0 00-.154-1.254c.205.384.333.768.358 1.075 0-.026.052-.051.077-.077 0-.41-.077-.972-.153-1.484.256.486.383.947.332 1.28l.154-.154c-.026-.742-.282-1.407-.512-2.098-.102.358-.102.486-.204.46.05-.409.025-.588-.052-.639-.05.563-.179.921-.358 1.1l.102-.92h-.153z" fill="#fff"/><path fill-rule="evenodd" clip-rule="evenodd" d="M31.1 49.734c0 .154 0 .283-.102.283-.102-.026-.077-.154-.051-.283h.154zm.284-.279c.051.025.076.076.076.255 0 .18 0 .307-.127.307-.154-.025-.128-.179-.077-.332.051-.18.077-.23.128-.23zm.356.052c0 .281 0 .486-.102.46-.102-.026-.102-.23-.051-.46h.154zm-.054-.36c.026 0 .026.051.052.129h-.129c.026-.078.052-.13.077-.13zm.359-.051c.051 0 .077.103.077.333 0 .23 0 .435-.18.41-.178-.026-.127-.231-.076-.461.077-.205.102-.282.179-.282zm-1.765-7.341c.64.154 1.306.691 1.97 1.254.103.18.052.23-.102.154-.46-.154-1.125-.921-1.867-1.408zm2.456 1.662c.128.077.179.154.153.18-.026.05-.128.025-.256-.052-.102-.077-.179-.18-.153-.205.025-.025.128 0 .256.077zm-6.444.946l.69.077.154.256-.025-.026c-.077 0 .23.82-.18-.05-.05-.103-.204-.078-.332-.129-.128-.05-.077-.077-.307-.128zm-3.199 11.05c.128 0 .256.051.256.103 0 .025-.077.076-.205.076-.153 0-.256-.025-.256-.076-.025-.052.077-.103.205-.103zm.334.641c.205-.05.435-.076.46-.025.052.05-.102.128-.306.204-.205.052-.41.052-.46 0-.026-.05.102-.127.306-.179zm.204.207c.23-.051.46-.077.512-.025.025.05-.128.153-.358.204-.256.077-.461.077-.512.026-.051-.051.102-.154.358-.205zm.309.23c.153-.05.307-.05.332 0 .026.026-.076.102-.23.154-.18.025-.333.025-.358-.026-.026-.026.102-.102.256-.128zm.202.205c.154 0 .256.052.256.103.026.05-.076.076-.204.076s-.256-.025-.256-.076.077-.103.204-.103zm2.735-1.021c.204-.077.41-.077.435.025.05.077-.103.23-.307.307-.205.077-.41.077-.435-.025-.026-.077.102-.205.307-.307zm-.357-.234c.153-.077.307-.077.332 0 .026.077-.076.18-.23.23-.153.077-.307.052-.332 0-.052-.076.076-.179.23-.23zm-.336-.459c.128-.051.23-.026.255 0 .026.077-.05.154-.178.179-.128.051-.23.051-.256 0-.026-.051.05-.128.179-.18zm-3.708-2.126c-.026-.128-.154-.128-.205-.026-.025.18.026.41.205.512.204.102.256-.103.153-.18a.505.505 0 01-.153-.306zm-.356-.18c.026-.153-.102-.23-.204-.102-.128.179-.18.46-.026.64.18.23.333.025.282-.103-.077-.179-.103-.281-.052-.435zm17.855-11.489c-.154.23-.205 1.1.563 2.149.28.358-.052.614.358.665.153-.026.255-.154.281-.384l-.256-.128h.358l-.383-.256c.128-.025.435.052.409-.076-.026-.154-.384-.18-.563-.256l.435-.103c.026-.128-.23-.23-.64-.358l.41-.102-.46-.281.357-.103-.562-.281.307-.154-.333-.102.307-.154c-.256-.102-.358-.332-.588-.076zm-.613.665c-.153-.332-.18-.614-.102-.87.179-.46.358-.588.511-.588.307.333-.204.537-.307.793-.076.051-.102.23-.102.665zm-.128-1.582c.128-.128.282-.205.333-.154.05.051-.026.18-.154.333-.128.128-.281.23-.332.179-.052-.051.025-.205.153-.358zm-.129 1.635c.076 0 .153.077.153.18a.165.165 0 01-.153.153c-.103 0-.18-.077-.18-.154 0-.102.077-.179.18-.179zm.335.513c.103.026.128.154.052.281-.052.128-.154.205-.23.154-.103-.026-.129-.154-.052-.282.051-.127.154-.204.23-.153zm.359.537c.128.05.154.179.051.332a.401.401 0 01-.384.18c-.127-.052-.153-.206-.076-.333.076-.128.255-.23.409-.18zm.383.589c.076.102.025.205-.103.256a.28.28 0 01-.332-.077c-.051-.077-.026-.179.102-.23.128-.051.256-.026.333.051zm1.843.308c.05-.077.05-.205-.077-.23-.128-.026-.205-.026-.282-.154-.102-.307.052-.46.307-.537.205 0 .282.077.23.205l-.127.102c.23.077.383.153.46.281-.128 0-.204.026-.23.128.435-.076.41.614.026.486-.256-.077-.384.026-.256.46.102.512.46.64.435.103-.052-.256.818-.307.92.256l-.332-.128c.077.41.41.23.46.588l-.28.026c.332.23.588.512.716.844-.359-.051-.384-.435-.717-.435.435.589.947.46 1.203 1.05-.359-.026-.793-.308-1.28-.768.435.614.717 1.125.615 1.381-.64-.281-.768-1.228-1.024-1.51 0 .487.358.768.23 1.306-.255-.307-.383-.793-.383-1.561.255.051.358-.128.358-.563-.051-.46-.282-.435-.23 0 0 .333-.23.435-.922.026-.102.102.052.23.435.46l-.025.384.204-.333.077 1.075c-.025.281-.102.23-.179-.051l-.077-.538c0 .384-.05.563-.179.538L42 45.745l-.281.358-.077-.563-.256.205v-.69c-.179.102-.384.025-.588-.282.281.077.46.025.69-.103-.128-.511.103-.767.538-.818zm-6.091 3.121c.025-.23.077-.307-.154-.614-.102-.102-.179-.128-.153 0 .051.205.256.41.307.614zm-.406-1.563c.333.18.486.205.665.69.052.18.026.308-.102.154-.204-.23-.307-.613-.563-.844zm.049-.996c.435.307.614.358.818 1.075.051.281-.025.434-.179.204-.256-.358-.332-.895-.64-1.28zm.205-.717c.486.154.844.742.844 1.254 0 .281-.128.46-.204.205-.103-.358-.282-1.1-.64-1.459zm.202-.384c.435.18.716.486.87.947.025.256 0 .384-.18.179-.102-.384-.358-.767-.69-1.126zm3.018 12.667c.102-.255.486-.511.947-.306.204.05.178.307.178.486-.127-.128-.255-.282-.383-.128-.358-.282-.486-.128-.742-.051zm-1.38.099c.102 0 .18.051.18.154 0 .076-.078.127-.18.127-.077 0-.154-.05-.154-.127 0-.103.077-.154.154-.154zm-.894.001c.052-.026.128.076.18.204.025.128.025.256-.026.256-.051.026-.128-.051-.18-.205-.025-.128-.025-.255.026-.255zm.307-.05c.025 0 .076.052.102.154.026.077.026.154-.026.18-.025 0-.076-.052-.102-.154-.026-.077-.026-.154.026-.18zm.075-3.3c-.026.025-.051.05-.051.076-.103.102-.205.18-.23.128-.052-.026-.026-.153.05-.256l.103-.102c-.026-.026-.026-.051-.051-.077-.026.026-.026.051-.051.077-.103.128-.23.205-.282.153-.051-.025-.025-.179.077-.307.026-.051.077-.076.102-.102-.025-.026-.025-.051-.051-.051-.102.128-.23.179-.281.153-.051-.051-.026-.179.076-.307 0-.025.026-.051.052-.051-.052-.051-.052-.077-.077-.102-.077.05-.128.076-.18.05-.025-.025 0-.127.078-.23-.052-.102-.077-.204 0-.255.153-.128.23.051.383.383.051.129 0 .205.077.282.051.102.205.154.256.23.179.282.153.512.128.538-.051.025-.026-.026-.128-.23z" fill="#fff"/><path fill-rule="evenodd" clip-rule="evenodd" d="M37.112 52.984c.076.051.025.205-.103.358-.127.154-.255.23-.307.18-.076-.052-.025-.205.077-.359.128-.153.281-.23.333-.179zm3.148-1.509c.025 0 0 .154-.052.307-.051.154-.154.256-.205.23-.025 0 0-.153.051-.306.077-.154.154-.256.205-.23zm-.385-.154c.051.026.026.23-.076.46-.128.205-.256.385-.333.359-.077-.026-.051-.23.077-.46.102-.23.256-.384.332-.359zm-.899-.357c.052.025.026.179-.05.383-.078.18-.18.307-.231.282-.051-.026-.026-.18.051-.358.077-.205.18-.333.23-.307zM14.16 7.728c.077-.358.307-.537.563-.563l.563.102c.205.154.18.205-.051.23-.46-.076-.716.026-.844.333-.18.256-.256.282-.23-.102zm1.797 1.073c.05 0 .127.051.127.154 0 .076-.076.153-.127.153-.077 0-.129-.077-.129-.153 0-.103.052-.154.129-.154z" fill="#fff"/><path fill-rule="evenodd" clip-rule="evenodd" d="M14.085 8.292c-.18.23-.128.486.18.793l.408.512c.358.255.538.204.486-.18-.05-.255.026-.358.256-.358a.45.45 0 00.333-.23c.051-.205.026-.307-.154-.358-.332.23-.614.333-.844.384.307-.205.537-.358.614-.486.077-.077.18-.103.333-.052 0-.127-.051-.255-.23-.307-.359 0-.717.256-1.05.614.205-.434.512-.69.973-.69.025-.128 0-.23-.128-.333a1.118 1.118 0 00-.793.23l-.384.46zm2.074 3.171a10.98 10.98 0 012.123 2.891v.947l-.307-1.075c.026.742 0 1.228-.077 1.075l-.255-1.535-.18.665-.153-.946c-.128-.103-.153.486-.128 1.304-.23-.23-.204-.895-.179-1.637l-.256.716c-.153-.383-.077-.895 0-1.381-.153-.128-.256.127-.307.895-.179-.512-.128-.921-.051-1.407l-.18.384-.05-.896zm6.268-7.215c.281.204.665.256 1.049.256l.025.204c.614 0 1.254-.281 1.893-.716-.025-.026-.153-.051-.281 0-.46.23-.41.077.46-.358.128-.077.23.025.435-.052l.563-.127c-.46.409-.92.818-1.432 1.202-.717.41-1.356.512-1.945.307a5.468 5.468 0 01-.972-.588c-.077-.128-.154-.205.205-.128zm3.529.13c.078 0 .129.051.129.103 0 .05-.051.102-.129.102a.11.11 0 01-.102-.102c0-.052.051-.103.102-.103zm.768 1.532c.05-.077.102-.103.154-.052.05.026.05.103 0 .154-.052.077-.129.103-.154.077-.052-.025-.052-.102 0-.18zm1.815-.691c.077-.026.153-.026.18.025.025.052 0 .154-.103.18-.077.05-.154.05-.18-.026-.05-.051 0-.128.103-.18zm-.407-.279c.077-.052.154-.078.18-.027.051.026.026.129-.026.18-.077.051-.154.077-.18.026-.025-.026-.025-.103.026-.18zm-2.79.534c.077-.025.153 0 .18.052 0 .05-.052.128-.129.128-.076.025-.153 0-.179-.051 0-.052.051-.103.128-.128zm.998 1.893c.103-.051.23-.051.256 0 .026.05-.025.128-.153.179-.102.025-.23.025-.256-.026-.026-.05.026-.128.154-.153zM23.067 5.63c.281-.026.665-.128 1.177-.359l.588-.281c.281-.128.333-.102.102.128-.256.256-.588.384-.818.563-.23.153-.563.358-1.126.204-.281-.076-.18-.23.077-.255z" fill="#fff"/><path fill-rule="evenodd" clip-rule="evenodd" d="M24.855 5.375c.332-.307.537-.384.997-.589.435-.179.87-.23 1.305-.23.307-.282.588.102.256.41-.102.102-.23.153-.358.23-.333.255-.69.358-1.05.46-.46.128-.51.077-.127-.18.128-.101.23-.178.358-.255.281-.179.588-.23.87-.256-.435-.281-1.28.154-2.123.563-.256.128-.333.051-.128-.153z" fill="#fff"/><path fill-rule="evenodd" clip-rule="evenodd" d="M27.162 4.04c.179-.052.332-.026.537-.026.332.102.486.281.511.511-.076.23-.179.359-.332.41-.077-.41-.23-.64-.46-.716-.103-.026-.154-.026-.256-.026v-.154zm-.386.106c.102-.05.128-.076.23-.102v.154l-.205.05c-.102.026-.204-.05-.025-.102zm-.462-.255c.23-.205.485-.384.793-.41.307-.025.64-.025.972.026.64.23.383.435-.026.282-.256-.154-.563-.128-.92 0-.026.256-.461.05-.717.23-.18.077-.205.026-.102-.128zm1.87.077c.204 0 .358.025.384.204.025.23-.026.41-.18.512.077-.486-.153-.435-.204-.716zm.561-.127c.052.077.077.282 0 .614l-.204.384c-.052.179 0 .23.128.179a.614.614 0 00.306-.563c0-.384.026-.563.154-.69-.23-.384-.46-.333-.384.076zM27.11 6.088c0 .256.588.307.665.026.127-.307-.103-.537-.026-.844-.384.102-.64.384-.64.818zm-.157.666c.128-.23.333-.307.64-.281.23 0 .358.05.358.28 0 .231.025.487-.026.692-.076.204-.102.179-.358.204-.281 0-.384-.128-.69.051.178-.434-.026-.614.076-.946zm1.102-.999c-.128-.204.025-.281.153-.128.154.128.256.307.256.486.026.18-.18.333-.307.18-.128-.154.026-.307-.102-.538zm.125.973c-.077-.256.026-.282.333-.154.204.18.23.307.128.41.204.204.204.486.025.818-.128-.102-.281-.051-.384-.204-.025-.103-.102-.052-.05-.435a.647.647 0 00-.052-.435zm.361 2.099c.128 0 .205.077.205.154s-.102.128-.205.102c-.128 0-.204-.076-.204-.153 0-.051.102-.103.204-.103zm-1.587-.229c.128 0 .23.076.205.153 0 .077-.102.154-.23.128-.128 0-.23-.077-.205-.153 0-.077.102-.154.23-.128z" fill="#fff"/><path fill-rule="evenodd" clip-rule="evenodd" d="M28.899 8.316c-.154-.256-.538-.435-1.1-.512-.358-.05-.845.052-1.356.18-.282.307-.384.767-.333 1.381l.23.051-.204.154h.281l-.179.256.154.05-.128.333.153.103-.077.204.205.026-.051.205.153.025-.05.205.153.051c.102.153.281.281.486.41.153.076.307.076.486.05.307-.23.384-.434.64-.716.076-.025.102-.179.102-.41.153-.076.205-.204.205-.383l.128-.179v-.614c-.154.051-.256.077-.384.051l-.358-.153-.103.793c0 .153-.077.383-.256.307l-.435-.205c-.102-.051-.076-.205.052-.256l.153-.025v-.691c-.256.077-.537.102-.793-.077-.102-.05-.205-.05-.307-.05a1.03 1.03 0 01.281-.36l-.153-.23c.051 0 .153.026.23.026.358-.025.537-.077.64.026.102.102.179.179.281.23l.026-.18c.076-.204.23-.255.46-.178l-.051.512.819-.256v-.154zm-1.893 2.098a1.69 1.69 0 01.716 0c.41.102.435.256.051.486-.23 0-.486 0-.742-.077.077-.128.154-.179-.025-.409zm.307.18c.102-.078.256-.078.409 0 .077.05.051.127-.026.178a.526.526 0 01-.281 0c-.077-.077-.026-.128-.102-.179z" fill="#fff"/><path fill-rule="evenodd" clip-rule="evenodd" d="M27.392 9.8c.051 0 .077.025.077.077 0 .025-.026.051-.077.051-.026 0-.078-.026-.078-.051 0-.052.052-.078.078-.078zm.409-1.178c0-.051.026-.102.026-.18.128-.127.18-.204.18-.076 0 .102 0 .18-.027.256h-.179zm-.156 1.253c.025-.333.076-.614.128-1.023h.179c-.026.281-.052.588-.154 1.074-.051.102-.102.051-.153-.051zm-1.971-1.761c-.026-.204.179-.179.204 0 .052.358 0 .64-.178.819-.128.077-.308 0-.205-.154.179-.255.23-.434.179-.665zm-.15 1.455c-.052-.23.102-.307.153-.052.18.691.486 1.356 1.177 1.996.281.23-.026.435-.281.205-.691-.589-.896-1.408-1.05-2.15zm2.556 2.098c-.025-.205.052-.41.282-.589.154-.102.205.077.128.18-.153.179-.281.179-.41.409zm-6.677 2.839c.026-.18.052-.307.154-.435a.775.775 0 01-.18-.128c-.127.281-.306.512-.562.844.179-.537.358-.946.742-1.356a4.826 4.826 0 01-.154.46c.052.052.128.103.18.154a.665.665 0 00.127-.153c0 .077 0 .153-.025.23h.025l-.025.077-.026-.026c-.05.128-.128.205-.256.333zm-.306.461a.6.6 0 01.179-.359.489.489 0 01-.18.359zm1.356.203c.025-.102.05-.204.076-.281l.052-.051c0-.026.025-.077.05-.103.052-.05.103-.127.154-.179-.025.307-.102.41-.332.614zm-.053.745c-.076-.256 0-.435.308-.588 0 .383-.026.486-.307.588zm.616-.235c.256-.614.281-.895.205-1.663.281.717.23.921-.205 1.663zm4.168 2.332a5.55 5.55 0 00.154-1.586c-.052.026-.077.026-.128.051a3.957 3.957 0 01-.256 1.024c.077-.333.128-.666.102-.998-.051.025-.102.05-.153.05-.026.231-.103.487-.205.82a4.37 4.37 0 00.077-.793c-.077 0-.154.025-.23.025-.026.333-.077.69-.154 1.151 0-.383-.025-.767-.025-1.125h-.256c0 .383-.052.767-.128 1.305-.026-.461-.026-.896-.052-1.33-.076-.026-.153-.026-.255-.052 0 .41-.052.819-.128 1.382-.026-.487-.052-.947-.052-1.408l-.23-.076c-.025.383-.102.767-.204 1.279 0-.46 0-.87.025-1.33l-.23-.077c-.026.511-.077.972-.102 1.51-.077-.666-.128-1.127-.077-1.587-.077-.026-.154-.051-.205-.102-.128.614-.179 1.15-.128 1.765-.179-.793-.204-1.254-.025-1.817a.556.556 0 00-.154-.102 4.493 4.493 0 01-.358.69c.128-.255.18-.51.256-.741-.077-.051-.18-.102-.256-.154-.051.333-.205.665-.46 1.126.332-.819.358-1.586.383-2.558.077.383.128.69.128.972.103.051.18.077.282.128a11.2 11.2 0 00.076-1.33c.128.562.18.972.103 1.355.076.026.153.077.23.077.025-.051.077-.128.128-.204l-.077.23c.051 0 .128.025.18.025.05-.153.076-.332.153-.537 0 .205-.026.384-.026.589.077 0 .128.025.205.025 0-.128.026-.281.026-.435.05.18.05.307.076.46.077 0 .18.026.256.026v-.588c.051.23.102.41.128.588.102.026.205.026.307.026 0-.205 0-.384.025-.614.052.23.077.435.128.614h.256v-.921a5 5 0 01.18.895c.076 0 .153-.025.23-.025 0-.205-.052-.435-.077-.666.102.23.179.435.205.64.05 0 .102-.025.153-.025-.026-.23-.077-.461-.102-.717.102.256.179.46.23.665.051 0 .102 0 .154-.025-.052-.359-.077-.742-.154-1.177.588 1.458.588 2.123.051 3.607zm.716-1.69l.103.23.358-.332c.103-.128.205-.103.282.076l.025-.41c.128-.076.23-.025.333.103.077-.102.077-.23.025-.384l.052-.511c-.205-.333-.358-.537-.589-.614.128.281.128.511.052.716-.026-.332-.18-.563-.436-.69.103.204.154.409.103.613a.766.766 0 00-.256-.23l.051.307-.153.103.05 1.023zm2.358-1.816c0 .077 0 .128-.052.128-.051 0-.102-.051-.18-.128h.232zm-.158-.436c.05.127.102.23.102.307h-.281a2.236 2.236 0 01-.154-.256c-.026 0-.026-.026-.026-.051h.359zm-.46-.484c.077 0 .256.154.384.384h-.333c-.102-.205-.127-.384-.05-.384zm-.154.896c.026-.025.128.077.23.23.078.154.103.282.078.307-.026.026-.128-.076-.205-.23-.102-.153-.128-.307-.102-.307zM29 14.38c.026-.025.154.103.282.282.102.205.153.358.102.384-.026.025-.154-.103-.282-.282-.102-.204-.153-.358-.102-.383zm-8.262-.999c.077.051.128.102.18.128l.127-.128c-.025.179-.077.23-.204.358.025-.077.05-.154.076-.205-.05-.05-.102-.102-.179-.153zM18.46 39.038l-.102.332-.102-.051.05-.281h.154zm-7.931 11.285c.332-.128.41.026.511.41.282.255.46.46.46.664.59.486.487.691-.306.614-.256-.076-.41-.255-.41-.614l-.255-1.074zm.129 1.973c-.204.307-.153.69.103.997a.63.63 0 00.511.23l-.102-.28.307.204c0-.154-.128-.333-.41-.537l.384.102c0-.205-.179-.384-.486-.537h.256c-.128-.358-.358-.46-.563-.18zm.997.177c.102-.026.179.102.204.255.026.154-.025.282-.127.307-.077.026-.18-.102-.205-.255 0-.154.05-.307.128-.307zm5.195-17.524c0-.82.359-1.612.82-2.405a19.081 19.081 0 00-.82 2.405zm1.842-4.759c-.307.127-.332-.128-.102-.307.486-.41 1.023-.563 1.637-.563h1.075c.409 0 .358.41-.026.384h-.767c-.691-.026-1.254.179-1.817.486z" fill="#fff"/><path fill-rule="evenodd" clip-rule="evenodd" d="M21.02 29.805c.282 0 .512.051.512.102 0 .077-.23.103-.511.103-.282 0-.512-.026-.512-.103 0-.05.23-.102.512-.102zm2.098-5.423c-.051-.051-.179.128-.358.358-.154.205-.256.41-.23.41.025.025.179-.128.332-.359.18-.204.282-.409.256-.409zm-1.794 1.764c-.128.23-.077.359.179.461 1.023.307 2.021-.026 3.019-.588l1.253-.589c.23-.281.18-.358-.127-.256l-.614.307.153-.511a2.444 2.444 0 00-.69.793l-.103-.256a.97.97 0 00-.333.537l-.128-.281a.777.777 0 00-.307.332l.052-.358c-.103-.077-.256.102-.461.512l.102-.384c-.076-.077-.204.077-.383.46l.409-1.227c-.205.025-.486.486-.793 1.304-.128.026-.18-.025-.154-.128l.46-.895c-.23-.026-.485.307-.792.895l.358-1.023-.665.87v-.333c-.154.051-.307.18-.435.358zm.131 16.658c-.103-.102.076-.205.128-.153l.307.281c.076.077-.103.205-.18.154l-.255-.282zm.231-.208c-.052-.077.076-.179.128-.128l.255.256c.077.077-.076.179-.127.128l-.256-.256zm.151-.227c-.102-.102.077-.23.153-.154l.307.307c.077.077-.128.205-.179.128l-.281-.281zm.127-.386c-.103-.128.128-.307.256-.23l.46.46c.128.128-.18.333-.256.23l-.46-.46zm.488-.408c-.154-.153.051-.358.179-.23l.563.486c.153.128-.077.359-.205.256l-.537-.512zm.334-.257c-.128-.128.026-.307.154-.205l.486.41c.128.127-.077.306-.18.23l-.46-.435zm.434-.156c-.101-.102.027-.255.129-.179l.41.359c.101.102-.078.28-.154.204l-.384-.384zm-2.047-2.89c0-.128-.204-.077-.23.026l-.051.46c0 .103.23.051.23-.025l.051-.46zm-.667.641c-.025-.205-.23-.103-.23.025l.051.358c0 .18.256.077.23-.025l-.05-.358zm-.765.487c-.026-.178-.153-.127-.153 0l-.026.333c-.026.18.179.103.179 0v-.332zm.974-.64c.051 0 .102.05.102.128 0 .077-.05.128-.102.128-.026 0-.077-.051-.077-.128 0-.077.051-.129.077-.129zm-.721.459c.076 0 .127.076.127.153 0 .102-.05.154-.127.154s-.128-.052-.128-.154c0-.077.05-.153.128-.153zm-.64.461c0-.154-.205-.154-.205-.026v.307c0 .154.23.128.23.026l-.025-.307zm5.552-19.339c.077 0 .128.077.128.18 0 .101-.051.204-.128.204-.051 0-.102-.103-.102-.205s.05-.179.102-.179zm.312.484c-.051 0-.077-.128-.077-.281 0-.18.026-.307.077-.307.051 0 .102.128.102.307 0 .153-.051.281-.102.281zm.482-.127c.128 0 .23.05.23.102 0 .025-.102.077-.23.077-.102 0-.204-.052-.204-.077 0-.051.102-.102.204-.102zm.255.434a.11.11 0 01.103.103c0 .077-.052.128-.103.128-.026 0-.077-.051-.077-.128 0-.051.051-.103.077-.103zm.41-.024h.947c.307 0 .358.154.153.435.103.512-.537.844-.511.026-.052-.154-.23-.23-.589-.23-.153-.052-.153-.205 0-.231zm-1.483 6.011c.077 0 .128.051.128.128 0 .077-.051.154-.128.154-.052 0-.103-.077-.103-.154s.051-.128.103-.128zm-.408.128c.077 0 .153.077.153.18a.165.165 0 01-.153.153.148.148 0 01-.154-.153c0-.103.052-.18.154-.18zm.508.283c.333-.23.665-.383.717-.306.05.077-.18.332-.538.588-.358.23-.665.358-.742.282-.025-.077.205-.333.563-.563zm1.231-.793c.204-.18.409-.281.435-.256.05.051-.103.23-.307.41-.205.153-.41.281-.435.23-.051-.051.102-.23.307-.384zm-.793 1.943c.076-.18.152-.359.255-.512l-.051-.026c.05-.307.281-.537.588-.69l.051.025c.103-.102.23-.179.384-.256-.077.128-.128.256-.205.358l.077.052a1.62 1.62 0 01.665-.41 3.098 3.098 0 01-.486.512l.154.102c.23-.204.511-.358.742-.46-.18.179-.359.384-.563.563l.179.102c.23-.18.511-.307.767-.358-.128.102-.256.204-.358.307.18-.051.384-.051.64-.077-.333.154-.538.205-.793.307l.204.128c.256-.154.537-.23.768-.23-.18.102-.384.23-.589.332l.18.103c.23-.128.511-.18.741-.154a3.78 3.78 0 00-.563.256l.103.077c.23-.103.46-.154.69-.154-.204.077-.358.18-.537.256l.154.077a1.18 1.18 0 01.588-.051c-.153.05-.307.076-.46.153l.537.333-.102.05-.819-.28c-.051 0-.077.025-.102.05 0-.025.025-.05.05-.076l-.204-.051c-.102.05-.23.128-.358.179.077-.103.128-.18.205-.23l-.205-.077c-.102.051-.23.128-.358.179a1.79 1.79 0 01.205-.256l-.205-.077c-.154.103-.281.205-.435.282.077-.128.154-.23.256-.333l-.282-.102c-.128.128-.256.23-.383.332a.804.804 0 01.204-.383l-.255-.103a6.547 6.547 0 01-.436.384c.077-.153.154-.307.256-.435l-.409-.153a2.682 2.682 0 01-.486.434zm-2.866.791c-.332.665-.665 1.689-.895 3.761-.128.921-.205 1.842-.026 2.789.103.511.333.69.563.665l3.812-.614c.282-.051.563-.282.435-.537l-.153-.307-.128.434-.205-.358-.153.41-.23-.512-.18.614-.23-.486-.128.512-.128-.435-.153.537-.18-.486-.153.588-.204-.563-.154.41-.18-.333-.127.307-.18-.256a.656.656 0 00-.536 0l-.077.128-.103-.128c-.281-.076-.588-.128-.87-.179l.359-.179c0-.128-.128-.179-.359-.153l.384-.282-.409-.077.384-.23c0-.102-.103-.204-.41-.332l.41-.128v-.103l-.41-.05.435-.206c.052-.102-.076-.179-.358-.281l.358-.102c-.025-.102-.05-.23-.307-.333l.307-.102-.307-.23.384-.154c0-.128-.051-.18-.281-.282l.409-.178c-.026-.077-.128-.205-.384-.282l.384-.128-.307-.204.358-.154-.281-.102.332-.205c.077-.077-.05-.153-.332-.179l.384-.154.025-.153-.358.051.179-.153-.23-.18.537-.128.051-.102-.384-.102.307-.18c-.05-.153-.153-.204-.307-.204zm.589.537l.076-.025c-.332 1.816-.485 3.556-.23 5.117-.128-2.43.18-5.015.64-5.45l.077.18c-.538 1.944-.589 3.683-.23 5.244-.23-2.66-.026-4.196.434-5.014v.255c-.358 1.868-.383 3.378-.05 4.605l.102-.076a14.874 14.874 0 01.204-4.963l.18.025c-.359 1.97-.359 3.505-.103 4.912l.102-.102c-.204-2.021-.179-3.428.128-4.708l.154.026c-.282 1.944-.307 3.48-.052 4.733l.103-.026c-.205-2.123-.103-3.633.179-4.758l.102.102a18.243 18.243 0 000 4.58l.103-.051c-.052-1.843-.154-3.3.076-4.375l.128-.154c-.179 1.356-.179 2.866.052 4.554h.102c-.18-1.995-.128-3.505.076-4.733l.103.077a31.77 31.77 0 00.026 4.682l.102-.026c-.102-2.2-.026-3.71.204-4.605.205-.077.205.18.026.46-.128 1.33-.18 2.661 0 4.12l.154.025c-.154-2.123-.026-3.352.204-4.554.128-.128.256.026.103.333-.18 1.484-.282 2.533-.128 4.221h.179c.204.077.23.154.025.23-1.253.256-2.456.486-3.607.563-.23.026-.307-.102-.307-.435-.077-1.816.128-3.48.563-4.989zm4.221 1.05l.154-.768c.179-.102.255-.051.23.153l-.333.64-.05-.026zm-.281-.82c-.18 1.28-.18 2.047-.307 3.378l.102.23c.026-1.484.23-2.43.435-3.556.077-.205-.128-.256-.23-.051zm-.384-.05c.077-.103.205-.077.179.05-.205 1.1-.332 2.406-.358 3.89h-.077c-.077-1.433-.025-2.712.256-3.94zm-5.321 8.365a3.23 3.23 0 01.179-1.279c.05-.179.23-.281.537-.307l3.428-.511c.18-.026.205.076.18.306-.052.333-.103.64-.257.896-.127.102-.153-.333-.127-.998-.256.614-.154 1.254-.563 1.356-.18-.281.102-.819.153-1.228-.384.358-.256.793-.588 1.254-.128.025-.102-.41-.026-1.1-.179.511-.332.92-.512 1.1-.102-.154-.102-.538-.076-.947-.154.665-.333 1.126-.486 1.203a3.942 3.942 0 01.025-1.1l-.077-.077c-.102.64-.204 1.023-.358 1.202-.128-.358-.153-.767.051-1.177h-.153c-.102.333-.154.614-.307.717-.205-.026-.307-.256-.307-.64-.18.716-.435 1.1-.716 1.33z" fill="#fff"/><path fill-rule="evenodd" clip-rule="evenodd" d="M27.851 31.316c-.205.154-.281.332.128.307-.281.256-.307.435-.077.512-.511.64-.511.818-.025.537-.563.716-.486.819-.103.69-.486.589-.41.666-.256.691-.332.46-.332.691-.025.666-.256.102-.435.306-.486.716-.103.41-1.203.87-.282 1.253.282.154.512.538.691 1.203.077.358.23.384.537.256.256-.077.512-.103.768-.128.486.051.512-.486-.026-.563.052-.205-.128-.307-.41-.18.231-.383-.05-.28-.152-.332.153-.077.127-.256-.282-.025l-.051-.128c.23-.077.307-.205.332-.358l-.69.23c.204-.18.307-.307.281-.435l-.486.102c.512-.358.716-.614.69-.742l-.536.154c.383-.307.639-.563.614-.716l-.461.179c0-.154.205-.307.588-.41.307-.153.46-.358.41-.64l-.691.333c.563-.511 1.023-.972 1.151-1.279-.051-.179-.614.205-1.356.819V33.9a5.788 5.788 0 001.663-1.689l-1.356 1.05 1.228-1.459c-.076-.18-.434.026-1.125.742l.05-.154.64-.69c.487-.282.794-.64.998-1.075.128-.332-.307.102-.972.69-.153.154-.332.231-.512.41l1.56-1.637.027-.205c-.154-.153-1.152 1.024-1.996 1.433zm-1.842 6.32c-.281-.18.026-.59.23-.41l.768.563c.23.179 0 .486-.18.358l-.818-.512zm.307-.487c-.281-.18.051-.537.23-.384l.41.41c.23.204.076.383-.128.281l-.512-.307zm1.637 1.535c-.204-.102-.307.051-.179.154.333.28.691.511 1.075.69.384.205.793.23 1.177.23.281 0 .409-.179.05-.255-.664-.18-1.33-.384-2.123-.819zm.205-.026c-.128-.153-.102-.281.077-.383l.92-.077c.18 0 .333.102.487.307l.435.486c.179.23.025.41-.154.358a10.52 10.52 0 01-1.765-.69z" fill="#fff"/><path fill-rule="evenodd" clip-rule="evenodd" d="M29.08 36.23c.154-.281.385-.486.717-.614.87-.128 1.74-.307 2.559-.614.255-.179.358-.128.332.154-.077.793-.179 1.458-.409 1.663v-1.382l-.102.026c-.077.69-.18 1.202-.359 1.407l.051-1.28h-.127l-.282 1.254.077-1.1c0-.153-.051-.179-.128-.102-.179 1.279-.41 1.816-.665 1.995.256-.818.256-1.381.205-1.867l-.077-.051c-.077.665-.18 1.304-.41 1.79-.255-.383.23-1.048.128-1.688h-.05l-.461 1.586c-.154 0-.103-.205.05-.614l.052-.895-.077.05c-.128.487-.255.845-.435 1.152l.077-1.177-.332.844.025-.69-.358.153zm3.787-.972c.026-.281.333-.205.205.077l-.154.358h-.076l.025-.435zm-.076 1.049c.025 0 .05.077.05.18 0 .102-.025.178-.05.178-.026 0-.052-.076-.052-.179 0-.102.026-.179.052-.179zm.128-.384c.05 0 .076.026.076.103 0 .05-.025.102-.076.102a.11.11 0 01-.103-.102c0-.077.051-.103.102-.103zm-.026-1.56c.077 0 .128.102.153.23.026.128.026.256-.05.256-.026.025-.103-.077-.129-.205-.025-.128 0-.256.026-.281zm-.384-.742c.23.23.256.435.23.614-.025.256-.23.435-.23.256-.026-.23 0-.486-.179-.794-.102-.128.077-.179.18-.076zm-1.867-.46c.025-.257.23-.052.23.102l-.077.409c-.077.077-.102.025-.18-.128l.027-.384zm-.896 1.33c-.205.127-.205.23.026.307l.102-.026v.026c0 .102.051.179.102.179.052 0 .103-.077.103-.18v-.076l.23-.051v.511c-.077.026-.154.026-.256.052 0-.052-.05-.077-.077-.077a.11.11 0 00-.102.102s.026.026.026.051c-.051.026 0 .026.102.103l1.714-.384c.512 0 .64-.384.512-.998.076-.205.025-.281-.154-.256l-.384-.05.23-.154c.308-.154.308-.23.052-.23l-.537-.078.434-.076c.128-.026.18-.18-.025-.256l-.46-.051.358-.077c.23-.179.102-.307-.333-.358.154-.18.128-.307-.051-.307-.077-.18-.307-.307-.23.025l.102 1.689c.051.18-.026.307-.23.384l-1.254.256zm.972-.666c.077 0 .128.051.128.128 0 .077-.05.128-.128.128-.05 0-.102-.05-.102-.128 0-.077.051-.128.102-.128zm1.024.538c.025 0 .05.025.05.05 0 .052-.025.078-.05.078-.026 0-.052-.026-.052-.077 0-.026.026-.051.052-.051zm-.103-.333c.103-.025.18 0 .205.051.025.077-.051.128-.154.154-.102.025-.179 0-.204-.077-.026-.026.051-.102.153-.128zm-1.177 1.1h.052v-.512l-.128.052.076.46zm.282-.077c.051 0 .077-.025.128-.025v-.486l-.23.05.102.462zm.307-.102c.026-.026.051-.026.077-.051v-.41l-.103.026.026.435zm.23-.102s.051 0 .077-.026c.179-.205.179-.307-.026-.358h-.05v.384zm3.962-24.178c-2.123-.18-3.147.512-3.71 1.228a3.647 3.647 0 00-.793 2.072c.052.128.282-.153.614-.588l-.204-.077a1.78 1.78 0 01.23-.435c.051-.077.051-.205.179-.281.153-.077.256-.23.256-.282h-.18c.59-.716 1.408-.895 2.329-.87.256.026.486.052.716.077a.464.464 0 00.333-.077c.077-.05.102-.127-.026-.127a6.466 6.466 0 00-2.43.102c.588-.384 1.432-.41 2.635-.358.486.025.512-.333.051-.384zm-3.71 13.662c.077.05.103.204.051.383-.05.154-.179.282-.255.256-.102-.025-.128-.204-.077-.358.077-.18.18-.307.281-.281zm-1.842.742c.026 0 .077.128.077.255 0 .154-.05.256-.077.256-.05 0-.076-.102-.076-.256 0-.127.025-.255.076-.255zm.154.895c.077-.486.307-.921.716-1.202.358-.256.435-.18.154.179-.256.332-.41.742-.614 1.1-.077.153-.307.332-.256-.077zm1.074-1.944c-.358.128-.64.358-.818.69-.128.307-.077.333.153.103.23-.256.512-.41.768-.614.102-.077.205-.256-.103-.18zm-2.2 1.714c-.179.23-.153.307.154.179.486-.742.818-1.228 1.1-1.382l.87-.767c.665-.154 1.049-.87 1.177-2.073l-.052-.153c-.332.844-.716 1.458-1.228 1.79-.46.334-.844.743-1.202 1.229-.154.153-.154.332-.282.537-.153.205-.409.41-.537.64zm-.204-.537c-.154.28-.026.383.127.153.589-.819.998-1.382 1.612-1.893.563-.435 1.382-1.228 1.714-2.277.205-.614-.025-.793-.179-.41-.332.921-.716 1.74-1.33 2.226-.69.563-1.433 1.203-1.944 2.2zm-.077-.845c-.128.23-.154.41-.051.537.486-.179.332-.946 1.535-1.56.153-.205.102-.282-.154-.205l-1.126.819c.384-.614.768-1.1 1.33-1.228a1.62 1.62 0 00.999-.537c.128-.282.076-.359-.128-.23-.691.46-1.28.639-1.817 1.048-.486.41-.819.921-.946 1.51l.358-.154zm-.077-1.484c.205-.435.767-.716 1.56-.972.538-.179.973-.563 1.357-1.023.409-.256.332-.026.204.256-.153.256-.255.332-.511.486-.307.256-.768.486-1.126.64a2.73 2.73 0 00-1.228.87c-.23.178-.333.102-.256-.257zm1.203-1.458c.383-.23.716-.46.972-.844.358-.512.511-.537.41 0-.103.435-.41.895-1.05 1.125-.537.205-.69-.05-.332-.28zm1.611-1.177l.18-.92c.025-.359.153-.692.383-.973l.282-.768c.076-.306.204-.28.204.103l-.179.486c.154.077.077.23-.026.384-.025.179-.025.384-.204.435-.051.69-.128 1.253-.333 1.432-.307.384-.409.333-.307-.179zm-1.228-.128l.41-.997c.102-.359.28-.563.511-.589l.563-.537c.128-.154.205.051.128.179l-.41.665c-.076.537-.28 1.023-.767 1.586-.102.103-.281.103-.179-.05l.486-.973-.614.844c-.179.23-.204.051-.128-.128zm-.716.41c.23-.614.307-.947.537-1.152.282-.28.358-.255.18.077a2.518 2.518 0 00-.308 1.254c0 .511-.64.41-.41-.18zm-.051-.819c.025.205.05.153.153 0l.23-.64c.256-.23.614-.486.947-.895.154.23.435.025.87-.563.537-.256.793-.665.947-1.177.127-.435.05-.511-.23-.23-.41.537-.717.742-.87 1.126-.487.153-.87.69-1.433.946-.154.103-.205.256-.205.46-.23.154-.384.41-.41.973zm.05-1.254c.052-.076.154-.102.206-.076.05.05.05.153-.026.23-.051.102-.154.128-.23.077a.21.21 0 01.05-.23zm2.84-4.374a3.298 3.298 0 011.203-.921c.486-.205.46.179.128.179-.256 0-.614.23-1.202.972-.154.204-.333.025-.128-.23zm-3.376 5.219c-.077-.921.128-1.459.562-1.766 1.177-.716 1.587-1.765 1.97-1.74.384-.665.973-1.355 1.663-1.995.512-.358.614-.281.333.282-.742 1.049-1.484 2.302-2.149 2.66-.307.026-.537.205-.716.486l.46-.23c.23-.025.256.051.102.205-.383.204-1.023 1.202-1.176.563-.256.486-.691.409-.717.895l-.051.64c-.102.179-.179.179-.281 0zm4.554-6.703c.23.025.332.102.153.307-.563.23-1.1.665-1.612 1.279.051.23-.05.435-.307.588 0 .384-.23.563-.614.614l-.563.717c.128.179-.076.46-.486.87-.255.281-.358.204-.307-.256.307-.845.896-2.072 1.177-2.072.154 0 .154-.052.205-.333.025-.205.23-.154.179 0-.026.204.026.23.154.077.639-1.05 1.33-1.587 2.02-1.791zm-1.715.256c.461-.538 1.254-.896 2.738-.87.307.025.256.332-.026.307-.23-.026-.486.077-.716.128-.282.076-.589.102-.844.255-.512.282-.973.742-1.382 1.382-.153.077-.179.026-.102-.153.511-.921 1.126-1.408 1.765-1.459l.026-.051c-.359-.077-.793.077-1.433.665-.077.077-.102 0-.026-.204zm.563-.793c.563-.359 1.203-.563 1.945-.461.46.051.46.333.204.307-.716-.102-1.407-.077-2.098.256-.255.128-.204 0-.05-.102zm3.556-2.099c-.18-.23-.052-.358.255-.332.794.153 1.484.256 1.92.614.255.179.05.358-.129.23l-.537-.281c.026.23-.18.128-.486-.128-.205.204-.46.102-.742-.205l.179.512c.026.102-.077.102-.128.025l-.332-.435zm1.1.41c-.103.076.025.256.102.332.102.103.23.051.179-.102-.026-.154-.179-.307-.281-.23zm1.637.64c-.077-.051-.256-.128-.026-.18-.256-.153-.153-.358.026-.383.69-.026 1.228-.41 2.02.025l.359.41c.23.537.026.793-.282.409-.153-.23-.025-.435-.409-.614.205.384.358.768.358 1.203.589.562.051.69-.102.332l-.23-1.049c.05.512.076.896 0 .896-.18 0-.077-.359-.154-.794-.051-.179-.102-.511-.204-.537-.435-.153-.845-.025-1.177 0 .563-.025.946 0 1.074.154.18.256.205.537.128.793-.128.204-.205.153-.205-.103l-.076-.332c-.026-.18-.23-.205-.512-.18-.18.026-.384.078-.588-.05zm-7.112 19.107a27.474 27.474 0 002.84 3.89c.127.153.025-.308.127-.129.23.486.589.947.742 1.1.154-.128-.332-.562-.409-1.074l1.458 1.688c.128-.23-.716-1.228-1.407-2.098l.103-.102 1.663 2.175.076-.026c-.256-.716-1.023-1.586-1.535-2.38l.051-.178c.307.384.717.972 1.05 1.458.485.69.92 1.305 1.048 1.356.614.154-1.458-2.021-2.405-3.837l.026-.103c1.126 1.714 2.123 3.275 3.224 3.991.127.077.23-.077.102-.23-.998-1.177-2.175-2.456-2.891-3.607l.051-.103c1.075 1.28 1.637 2.738 3.684 3.966.128.076.205.204.333.102.46-.358-1.766-.895-3.48-3.786l.026-.205c.64.87.742 1.126 1.33 1.74.819.895 2.098 1.944 2.303 1.79.204-.178-1.842-1.586-2.942-3.3l.05-.05c.87 1.202 2.099 2.66 3.89 3.58.255.129.153.103.46.103.793.051-1.765-1.253-3.096-2.712l.026-.128c.384.333.87.768 1.407 1.203.64.46 1.305.87 1.842 1.177.486.256.87.409 1.049.332.46-.23-1.765-1.023-2.328-1.612.333.18.665.308.946.435.973.486 1.663.82 1.817.64.102-.128-.41-.41-1.305-.742-.102-.102-.025-.128.23-.077 1.024.41 1.612.691 1.74.614.333-.102-.205-.332-.819-.716.768.333 1.433.64 1.791.537.128-.025-.435-.332-.92-.767.69.435 2.327 1.023.767-.077l.102-.051c.588.435 1.33.614.435-.103h.128c.512.41.793.717.41-.127.511.742 1.023 1.023.332-.052l.793.614c-.281.128-.256.205 0 .359.665.434.716.358.589 0 .076-.691-.18-1.152-.64-1.433-.512-.333-.486.051.102.972a2.287 2.287 0 01-.537-.588c-.102-.205-.333-.333-.588-.333-1.203.026-2.38.256-3.506.41-.87.127-1.535 0-1.842-.205-.307-.256-.409-.358-.255-.64.102-.23 0-.41-.154-.486l-.819-1.637c.103.179.23.256.333.409.333.537.563.972.64.947-.128-.359-.563-1.152-.896-2.047.64 1.126 1.203 2.098 1.356 1.97-.077-.435-.588-1.28-1.1-2.15.154.154.205.206.307.333.205.256.384.486.486.435-.41-.844-.844-1.381-1.305-1.535-.716-.255-1.15-.358-1.049.103l-.358-.41-.383-.05c-.128.05.05.255.307.69l-.077.051-.435-.69c-.128-.077-.307-.154-.333 0l.23.46-.486-.537c-.23-.128-.486-.18-.486-.077l.717 1.177c-.128-.18-.333-.359-.512-.614-.281-.384-.512-.666-.844-.717-.333-.025.332.512.793 1.612l-1.1-1.586c-.103-.077-.538-.154-.563 0l1.28 1.842c-.59-.665-1.178-1.228-1.51-1.868-.077-.076-.154-.076-.23-.076-.052-.026-.103 0-.154.05l1.56 2.022a8.913 8.913 0 01-.844-.87c-.332-.46-.64-.767-.895-1.177-.103-.128-.307-.077-.333-.025-.128.179 1.177 1.509 1.74 2.302a12.716 12.716 0 01-1.97-2.302c-.256-.128-.435-.128-.512 0-.076.153 1.587 1.74 2.226 2.737-.87-.921-1.714-1.79-2.405-2.737-.102-.128-.41-.128-.41 0 0 .255 1.433 1.56 2.585 3.146-.844-.92-1.868-2.149-2.303-2.404-.205-.026.512.87 2.15 2.737a21.953 21.953 0 01-2.252-2.38c-.205.18.69 1.305 1.996 2.738l-2.047-2.149c-.282-.179-.333-.154-.18.102zm8.698-.486c-.179-.256.077-.383.282-.076.409.69.793 1.279 1.074 1.944.128.307-.051.384-.179.102-.333-.742-.742-1.33-1.177-1.97zm-.793-.256c-.128-.204.205-.332.46.026.59.819 1.1 1.637 1.51 2.482.23.511 0 .64-.23.179-.486-.998-1.126-1.868-1.74-2.686z" fill="#fff"/><path fill-rule="evenodd" clip-rule="evenodd" d="M35.526 12.076c-.026.46.23 1.05.716 1.433 0-.077-.23-.435-.384-.742-.153-.358-.23-.64-.332-.69zm1.586 15.964c-.052-.741-.46-1.279-1.28-1.893.026.18.538.614.845 1.152.307.511.307.639.435.741zm-.026-.767c-.102-.077-.179-.358-.435-.768-.256-.434-.69-.87-.716-.997.665.486 1.1 1.176 1.151 1.765zm-.102-.972c-.077-.077-.154-.282-.333-.589-.205-.332-.537-.665-.563-.767.538.358.87.87.896 1.356zm-.102-.998c0-.333-.256-.69-.615-.896.026.077.23.282.384.512.128.205.18.333.23.384zm-.384-14.02c-.128.435 0 1.049.41 1.56.025-.102-.129-.485-.231-.844-.077-.332-.102-.665-.18-.716zM31.969 27.76c-.383.026-.46-.051-.486-.435.18.179.333.256.486.435zm-.511-.665c.256.256.511.409.767.69a.356.356 0 00.384-.05c-.41-.436-.793-.691-1.228-1.126.026.153.051.332.077.486zm-.103-.717c.538.538.947.87 1.433 1.382.154.077.256.077.333 0-.589-.742-1.126-1.305-1.715-2.047-.05.23-.05.46-.05.665zm.103-.818c.665.767 1.305 1.432 1.995 2.277.205.102.358.102.435.025-.665-.87-1.51-1.816-2.277-2.763-.051.128-.076.23-.128.333-.025.051-.025.077-.025.128zm.179-.64c.87.998 1.663 1.893 2.584 2.993a.364.364 0 00.358.026 32.526 32.526 0 01-.819-.972c-.742-.921-1.177-1.407-2.02-2.43a2.131 2.131 0 01-.103.383zm.153-.537c.921 1.023 1.254 1.484 2.252 2.66.102.154.64.691.741.82.128.255.563.255.359.076-.18-.205 0-.051-.256-.384-.819-.998-2.175-2.635-2.993-3.658-.026.179-.077.332-.103.486zm.128-.614c.026-.154.051-.282.077-.41.768.973 2.277 2.79 3.147 3.864.46.563.435.537.69.818 0 .128-.102.077-.28.026-.231-.256-.206-.23-.436-.537-1.074-1.254-2.251-2.712-3.198-3.761zm.077-.537c.051-.18.051-.384.077-.563.818 1.279 1.995 2.635 3.3 3.837-.102-.511-1.74-1.918-2.737-3.249-.205-.358-.384-.69-.512-.972.026-.153.026-.281.051-.46.69 1.407 1.79 2.711 3.326 4.042-.18-.46-1.765-1.74-2.61-3.096-.307-.537-.537-.972-.665-1.33v-.23c.691 1.381 1.893 2.814 3.326 4.042-.153-.46-1.79-1.791-2.584-3.096a11.36 11.36 0 01-.69-1.356v-.256c.665 1.33 2.148 3.122 3.504 4.298-.153-.435-1.995-2.046-2.763-3.3-.332-.588-.563-1.049-.69-1.407v-.358c.562 1.33 1.995 3.095 3.402 4.247-.153-.435-1.919-1.893-2.635-3.096a8.152 8.152 0 01-.716-1.484c0-.128 0-.281.025-.383.486 1.355 1.842 2.993 3.275 4.093-.154-.384-1.79-1.714-2.456-2.84-.435-.742-.64-1.228-.793-1.586 0-.154 0-.282.026-.435.409 1.33 1.688 2.942 3.12 4.068-.102-.384-1.637-1.587-2.302-2.66-.486-.82-.64-1.357-.793-1.715v-.077c.026-.153.026-.332.051-.486.282 1.33 1.51 3.045 2.968 4.221-.102-.332-1.51-1.535-2.098-2.532-.563-.947-.69-1.51-.87-1.817.435-3.684 1.996-5.858 4.273-6.242l.051.025c-.077.435 0 .973.256 1.484.05-.102-.077-.614-.103-1.049v-.383l.205.05c.026.512.205.999.435 1.05-.18-.282-.205-.64-.205-.947l.282.077c0 .537.179 1.126.435 1.151-.23-.307-.23-.716-.205-1.049l.051.026c.051.204.128.41.23.511.103-.127.051-.383-.025-.665.281-.153.614-.128.972.103.128.153.077.23-.102.23h-.18l.41.179c.026.051.102.102-.128.128l-.153.128.537.05c.179.078.153.129.102.206l-.128.153c.46 0 .947.102 1.535.41-.025.204-.256.179-.69-.052.102.256.511.282.485.435-.05.282-.665.026-.946.384l.69.025c.154.103.103.18-.127.18.358.435.64.563.742.255.102-.23.204-.23.307 0 .435.256.511.282.255.333l-.409.077.486.077c.128.05.128.153.052.23-.333.05-.359.102.255.128.256.128.358.255.256.358-.537.025-.511.102.128.153.154.077.205.18.18.256-.333.077-.282.154.127.154.051.076.102.128.026.204-.384.103-.333.154.153.154.026.179.307.153.41.384.409-.077.588.204.23.204l-.026.077c.588.026.844.18.768.537-.052.154-.845-.307-.512.921l.128.128c.23.051-.026-.563.358-.511.051.025.102.204.026.511-.077.282-.256.41-.538.23-.255-.179-.409-.358-.383-.562l.025-.384c-.281.026-.332-.154-.358-.435 0-.051-.102-.026-.077-.102-.46-.077-.665.076-.793.409-.025.128-.128.026-.179-.102.026-.077-.153.025-.256-.026-.077 0-.05-.179-.128-.153-.05 0-.05.076-.153.076-.077-.025-.051-.204-.205-.05-.102.102-.128.102-.153-.052.025-.128.128-.384-.154-.026-.102.052-.128.052-.179-.076-.153-.435-.256-.46-.307-.077-.077.153-.153.179-.153-.051-.154-.665-.18-.665-.128-.026-.026.282-.103.256-.256-.077-.18-.537-.256.051-.384-.204-.179-.307-.051-.742-.358-.87l.179.895c0 .128-.205.154-.23-.05-.103-.59-.486-1.613-.41-1.28l.23 1.228c.026.102-.255.051-.306-.102l-.307-1.535c-.077-.435-.077.818.102 1.356 0 .076-.205.076-.18-.026 0-.128-.23-1.586-.306-1.51-.18.18.307 1.638-.077 1.408-.051-.026-.179-1.484-.23-1.51-.026 0 0 1.407-.051 1.382-.41-.512.025-1.893-.256-1.97-.051 0-.18 1.688-.23 1.637.179 1.305 1.228 1.356 1.15 1.74l-.741-.384c.205.384.512.793.716 1.228-.23.077.026.384.18.537-.23-.025-.18.128.255.538.103.076.128.153.103.23-.538-.128-.589-.128.281.563-.537-.077-.563-.026.051.383.102.077.23.23.256.384.026.103-.077.051-.128.051-.102-.05-.256-.153-.307-.179-.153-.025-.051.18.665.717.18.153.256.281.128.332-.87-.537-.818-.41.128.41.23.358.256.511.18.562-.768-.64-1.28-1.049.05.282.23.23.282.384.103.41-1.33-.998-.614-.334.281.587.051.052 0 .128-.051.103-1.28-.947-1.33-.716.025.69.052.129.128.23.077.333-.025.051-.128 0-.179-.026-.92-.87-.844-.69.205.743.153.23.23.434-.026.307-1.151-1.305-1.51-1.587-.025.409.153.256.179.384-.026.307-1.049-1.433-1.075-1.254-.051.281.077.18.077.205 0 .18-.947-1.152-1.228-1.433-.051.255.153.307.128.358-.026.205-1.151-1.433-1.177-1.254-.051.23.102.18.153.282-.026.205-1.33-1.51-1.33-1.458-.05.179.025.41.025.384-.231.179-.128-.154-.128-.281-.256-.41-.818-.997-.92-.92.051.359-.102.102-.23.102-.383-.026-.845-1.1-.922-1.1-.256-.051l-.46-.077a1.145 1.145 0 00-.257-.332c-.793-.768-1.074-.845-.281.153.026.026-.051.051-.026.077l-.895-.153a.438.438 0 01-.333-.18c-.383-.665-.614-.92-1.253-1.535.051.23.537.64.92 1.28.103.409-.357.23-.51.153-.282-.384-.385-.435-.794-.92-1.151-1.357-2.38-2.892-3.377-3.966zm3.096-10.746c.076.052.179.384.383.768.205.41.512.793.538.921-.614-.486-.947-1.151-.921-1.688zm-.384.41c.102.102.179.435.41.895.255.46.664.921.664 1.075-.665-.563-1.074-1.33-1.074-1.97zm-.358.46c.128.103.204.486.486.998.281.512.767 1.05.793 1.203-.793-.614-1.28-1.484-1.28-2.2zm-.307.46c.025.794.588 1.766 1.458 2.457-.026-.18-.614-.768-.921-1.356-.333-.563-.41-.972-.537-1.1zm-.282.487c.051.87.666 1.919 1.663 2.712-.05-.205-.716-.87-1.074-1.51-.358-.64-.46-1.074-.589-1.202zm-.255.486c.076.947.767 2.098 1.841 2.942-.05-.23-.818-.92-1.202-1.637-.41-.69-.486-1.152-.64-1.305zm-.256.486c.102 1.05.895 2.277 2.046 3.198-.05-.256-.895-1.023-1.356-1.79-.409-.743-.511-1.229-.69-1.408zm-.205.486c.102 1.126.972 2.456 2.226 3.454-.077-.281-.998-1.1-1.484-1.919-.46-.818-.563-1.33-.742-1.535zm-.18.512c.103 1.202 1.05 2.635 2.406 3.71-.103-.308-1.1-1.203-1.638-2.098-.511-.87-.588-1.407-.767-1.612zm-.204.486c.18 1.28 1.254 2.916 2.687 4.068-.103-.333-1.28-1.382-1.843-2.328-.537-.947-.64-1.484-.844-1.74zm3.377-5.04c.077.026.18.307.282.588.102.256.255.538.255.615-.409-.333-.588-.82-.537-1.203zm6.678 6.754c-.282-.281-.461.051-.077.41.332.306.69.204.588.102l-.511-.512zM40.642 15.3c-.051 0 .026.307.051.46 0 .154.052.256.154.384.102.128.154.154.128.102-.103-.281-.205-.537-.23-.767 0-.102-.052-.154-.103-.18zm-.358-.384c-.051 0 .026.358.026.537 0 .154.05.307.153.46.102.129.154.18.128.129-.102-.359-.205-.64-.205-.921a.356.356 0 00-.102-.205zm-.384-.384c-.05-.025.026.384.026.589 0 .204.026.383.153.563.103.153.154.204.128.127-.077-.383-.204-.716-.204-1.049 0-.153-.026-.204-.103-.23zm-.358-.383c-.051-.052 0 .434 0 .665-.026.23.026.409.128.64.128.178.18.23.154.153-.077-.46-.18-.845-.18-1.203 0-.179-.05-.23-.102-.255zm-.358-.41c-.051-.026 0 .512-.026.768-.025.255.026.46.128.69.103.23.18.282.154.205-.077-.512-.18-.946-.154-1.356 0-.179-.05-.256-.102-.307zm-.384-.384c-.05-.05 0 .538-.025.845-.026.256 0 .511.128.767.102.256.153.307.153.23-.077-.562-.179-1.048-.153-1.51.025-.204-.026-.28-.103-.332zm-.332.026c-.026-.051-.026.435-.052.665-.025.23 0 .435.103.64.077.204.128.255.128.179-.051-.46-.128-.845-.103-1.203.026-.179-.025-.23-.076-.281zm-.282 0c-.05-.026-.05.358-.077.537a.821.821 0 00.052.486c.076.18.102.205.102.154-.026-.358-.077-.665-.026-.947.026-.128-.025-.179-.05-.23z" fill="#fff"/><path fill-rule="evenodd" clip-rule="evenodd" d="M11.81 4.172a117.56 117.56 0 012.303 2.916c0 .18-.077.282-.282.282-.844-1.203-1.483-2.175-2.123-3.096-.128-.179.026-.205.102-.102zm3.864 6.575c.076.204-.077.307-.23.102-.333-.384-.257-.87.101-1.305.384-.46.87-.46 1.305-.128.256.205.18.23-.128.23-.87 0-1.202.436-1.049 1.1zm.895-.41c-.358-.127-.46.026-.384.41 5.117 7.214 12.869 17.755 22.002 30.188l-.051.18.767.434-.255-1.023-.154.102c-7.035-9.824-15.197-21.387-21.925-30.29z" fill="#E2B700"/><path fill-rule="evenodd" clip-rule="evenodd" d="M28.976 12.23c0-.18.665-.64 1.535-1.229.383-.307.742-.409 1.074-.409.102.026.256.051.46.026.205.127.129.23-.102.281-.102-.077-.204-.102-.307-.051-.23.051-.256.204-.409.256l-.102-.154c-.307.205-.512.768-.742 1.05l-.052-.282c-.153.025-.255.358-.485.537.025-.205-.026-.307-.103-.307-.384.256-.665.384-.767.281zM18.819 25.634c.23 0 .435.077.435.154 0 .102-.205.179-.435.179-.256 0-.46-.077-.46-.18 0-.076.204-.153.46-.153zm1.74-.358c.153-.23.332-.332.383-.281.051.076-.025.307-.153.511-.154.23-.333.358-.384.282-.051-.052.026-.282.154-.512zm-.563.307c.102-.179.23-.281.281-.23.051.051 0 .23-.102.41-.128.178-.256.28-.307.23-.051-.052 0-.23.128-.41zm-.512.102c.102-.153.205-.23.23-.204.051.05 0 .204-.076.358-.103.128-.205.205-.256.179-.026-.051 0-.205.102-.333zm-8.52-1.816l-.102.281c.128.026.23-.153.358-.23l-.102.46c.154.026.512-.358.768-.537l-.18.46c.23 0 .384-.332.563-.51l-.102.485c.281-.025.46-.383.69-.588l-.05.46c.204-.025.358-.307.563-.486l.102.333c.179.025.281-.23.435-.333l.077.307.383-.384.077.333.435-.153.128.179.358-.18-.026.384.487-.204.05.256.359-.205v.332l.41-.102.025.307.614-.256-.205.46.537-.332-.076.358.588-.256-.332.538c.383.025.511-.256.767-.384l-.18.486c.385-.077.717-.384 1.05-.793.077.128.026.333-.256.768.41-.18.614-.46.768-.768l-.128.537c.256-.025.511-.23.742-.588l-.026.512c.205-.154.358-.359.46-.614.256.102.538-.052.64-.46.154-.385.051-.513-.281-.385-1.1.768-2.559.972-4.708.333-1.381-.384-2.814-.435-4.247-.486-.64-.026-1.177.077-1.432.665zm3.25-5.5c.102-.18.307-.333.563-.487l.05.23.615-.204.051.205.665-.359c-.384.486-.46.691-.332.691.102 0 .588-.563.741-.41-.332.512-.025.359.538-.102.153.052-.205.41-.154.461.052.051.256-.102.665-.384.103-.076.333-.332.384-.204.026.153-.128.23-.204.332-.41.486-.308.41.409-.05.102-.052.256-.18.358-.129-.486.64-.281.512.435.077.102-.051.23-.23.358-.102-.895.793-.742.895.41.332-.538.614-.41.64.434.102.077-.025.18 0 .282-.05-.384.383-.435.664-.256.562.281-.128.64-.281.819-.23-.359.358-.333.512.127.435.154.051 0 .23-.46.537-.077.128-.153 0-.23-.307-.051.18-.128.18-.205.077l-.102.665-.154-.026v-.383c-.076-.103-.153-.103-.23 0l-.128.511-.23-.128c-.077.18-.18.359-.358.486-.154-.204-.256-.153-.307.026-.103.026-.154-.051-.256-.026-.077.23-.154.282-.282.128a3.083 3.083 0 00-.588.46l-.102-.255c-.18.256-.333.41-.435.358l-.18-.179-.28.46-.461.129c0 .128.179.128.486.076.41-.05 1.202-.23 1.714-.383.512-.154 1.075-.23 1.689-.486.486-.23 1.048-.64 1.611-.922.128.103.026.359-1.049 1.203l-.511-.154.281.384c-.128.128-.23.18-.358.154l-.46-.23.153.486c-.333 0-.486-.41-.793-.23l.128.383-.691-.205.128.46-.588-.255-.128.256c-.18 0-.282.051-.308.128 1.357.23 2.84-.256 4.375-.998.077-.026.103.026.103.153-.128.614-.563 1.152-1.254 1.638l.205-.819c-.46.205-.973 1.203-1.356 1.33l.409-1.074-1.202.998c-.103-.128.05-.41.307-.768-.358 0-.973.845-1.075.793-.256-.127.205-.383.307-.563-.332-.025-.563.282-.844.436-.026-.154.153-.333.46-.614l-.997.46c0-.18.384-.333.46-.588-.46.306-.87.511-.972.486l.307-.486-.87.46.537-.563-.92.435.255-.486-.665.435.281-.537c-.332.281-.64.46-.818.46.179-.23.307-.41.281-.537-.307.256-.614.435-.742.435l.128-.435a2.153 2.153 0 01-.844.537l.307-.512c.051-.076.026-.178-.077-.102l-.69.563c.153-.281.23-.46.127-.537l-.486.256.051-.282-.562.614c-.077-.025.025-.179.102-.46l-.588.384c.306-.614.818-1.024 1.509-1.229.818-.255 1.458-.281 1.97-.358.895-.128 1.458-.204 2.175-.537.332-.128.716-.281 1.125-.614.205-.154.128-.205-.102-.18l-.921.052v-.41l-.358.487-.077-.486-.307.844-.128-.972-.23 1.049-.128-1.024-.384 1.177-.102-1.228-.23 1.254-.23-1.28-.154 1.28-.256-1.203-.102 1.152-.333-1.177-.026 1.228-.384-1.177-.076 1.049-.256-1.024-.102.922-.205-.845-.128.921c-.384-.716-.537-1.304-.281-1.637.383-.435.895-.537 1.407-.46zm2.916-2.79c.077 0 .154.103.205.282.051.18.051.333.026.333-.077.025-.154-.103-.205-.282-.051-.153-.051-.307-.026-.332zm-2.61-.306c.385-.589.692-.768.896-.307.256-.819.538-.896.896-.18.486 0 .588.743.511 1.843l-.46-1.228v.793c-.307-1.356-2.277-.563-1.842-.921zm8.495-4.452c.562.051 1.125.256 1.663.563.025.077.05.128-.052.077-.204-.154-.383-.23-.537-.23.051.23.026.332-.076.307-.205-.359-.385-.41-.538-.333-.051.026-.077.051-.128.026-.153-.333-.23-.333-.307-.205-.153-.128-.153-.205-.025-.205zm-2.891.154c-.128.076-.128.128-.026.153.18-.153.358-.179.588.051 0-.332.128-.307.41.103-.103-.41 0-.512.435.102 0-.332.025-.384.307.18.076.101.153.101.179.05-.154-.588-.077-.563.256.051.102.128.153.128.153.052-.025-.41.154-.333.537.23.103.128.154.179.18.051-.077-.333.076-.307.409.102.256-.025.614.18 1.074.589.052.077.103.102.154.077-.256-.46.051-.282.46 0 .256-.128.282-.205.128-.256-.87-.307-1.586-.64-2.098-1.024-.588-.46-.844-.332-1.535-.767-.588-.256-1.125-.128-1.611.256zm-1.254.818c-.307.103-.307.23-.026.282.128.025.23.025.333 0 .18-.026.256 0 .333.153.127.256.281.359.409.282.077-.077-.486-.486-.205-.486h.154c.435.409.844.64.819.563l-.18-.461c-.05-.153.18-.077.282.026l.588.511c.077.103 0-.076-.102-.409-.051-.102.102-.102.205 0 .358.358.793.972.793.742v-.23c0-.103.128-.103.204 0 .205.256.486.486.46.383l-.05-.204c-.026-.128.076-.128.23 0l.614.511c.128.103.23.052.179-.025l-.102-.154c-.077-.128-.026-.153.128-.05l.537.383c.102.077.102-.026-.051-.256h.307c.05.179.179.23.486.358.077.051.102-.051.256-.102l.742-.23c.23-.077.204-.23 0-.18-1.075.282-2.2-.255-3.403-.92-1.586-.845-2.865-.845-3.94-.487zm10.54.589c.052.05 0 .128-.076.23-.077.077-.18.102-.23.077-.026-.051 0-.154.076-.23.103-.077.18-.103.23-.077zm.82.205c-.18-.128-.257.179.05.076l.435-.383c.205-.359.077.102.205.076.153-.05.384-.511.332-.69l.359-.18c.204-.179.153-.255-.128-.23-.333.256-.665.537-.947.921l-.307.41z" fill="#0092D0"/></svg>