<svg width="193" height="105" fill="none" xmlns="http://www.w3.org/2000/svg"><rect x=".046" y="22.039" width="184" height="83.23" rx="12" transform="rotate(-6.807 .046 22.039)" fill="url(#paint0_linear_130_3954)"/><rect x="26.252" y="22.981" width="153.21" height="74.261" rx="11.5" transform="rotate(-6.807 26.252 22.98)" stroke="#fff" stroke-opacity=".46" stroke-dasharray="6 6"/><g filter="url(#filter0_d_130_3954)" fill="#fff"><path d="M71.078 77.763c-2.156.257-4.237.05-6.242-.62a14.747 14.747 0 01-5.312-3.155c-1.555-1.431-2.755-3.168-3.601-5.21l7.523-3.02c.379.986.939 1.808 1.68 2.468.76.657 1.6 1.143 2.52 1.457a6.665 6.665 0 002.801.272c1.227-.146 2.308-.578 3.246-1.297a6.666 6.666 0 002.144-2.711c.491-1.09.663-2.252.516-3.488-.147-1.235-.588-2.325-1.323-3.268a6.665 6.665 0 00-2.722-2.13c-1.08-.478-2.233-.644-3.46-.497-1.502.18-2.698.585-3.585 1.216-.89.612-1.545 1.175-1.965 1.69l-7.074-1.278-1.428-23.053 23.32-2.784.906 7.593-18.87 2.252 2.528-3.03.873 14.873-1.565-1.511a10.259 10.259 0 013.42-2.349c1.318-.561 2.57-.913 3.757-1.055 2.69-.32 5.126.005 7.308.977 2.2.95 4 2.413 5.399 4.389 1.417 1.953 2.287 4.285 2.61 6.995.324 2.71-.086 5.245-1.228 7.605-1.145 2.34-2.788 4.294-4.928 5.863-2.142 1.55-4.558 2.485-7.248 2.806zm34.653-4.137c-3.164.378-6.013.041-8.546-1.01a14.28 14.28 0 01-6.215-4.928c-1.611-2.234-2.607-4.945-2.987-8.133L86.44 46.642c-.38-3.189-.05-6.058.99-8.608a14.273 14.273 0 014.88-6.252c2.214-1.618 4.903-2.616 8.068-2.994 3.165-.378 6.013-.04 8.546 1.011 2.533 1.052 4.605 2.695 6.216 4.928 1.61 2.233 2.606 4.944 2.987 8.132l1.541 12.914c.381 3.188.051 6.057-.989 8.607-1.04 2.55-2.666 4.633-4.881 6.252-2.214 1.618-4.903 2.617-8.068 2.994zm-.92-7.712c1.424-.17 2.669-.662 3.735-1.477a7.607 7.607 0 002.402-3.075c.534-1.237.716-2.572.544-4.007l-1.691-14.169c-.171-1.435-.662-2.69-1.472-3.765a7.612 7.612 0 00-3.058-2.425c-1.228-.54-2.554-.726-3.979-.556-1.424.17-2.669.663-3.735 1.477a7.607 7.607 0 00-2.401 3.076c-.535 1.236-.717 2.572-.545 4.006l1.691 14.17c.171 1.434.662 2.69 1.473 3.765a7.608 7.608 0 003.057 2.424c1.229.54 2.555.726 3.979.556z"/></g><g filter="url(#filter1_d_130_3954)"><path d="M132.2 69.771l-4.607-3.623 25.373-32.241 4.613 3.669L132.2 69.77zm22.033-1.934c-1.509.18-2.932-.021-4.269-.603a8.723 8.723 0 01-3.327-2.617c-.897-1.16-1.436-2.503-1.618-4.027a7.81 7.81 0 01.653-4.25 8.8 8.8 0 012.66-3.356 7.85 7.85 0 013.937-1.605c1.509-.18 2.933.028 4.272.626a8.23 8.23 0 013.328 2.616c.894 1.145 1.432 2.48 1.614 4.004.182 1.524-.026 2.955-.624 4.294a8.468 8.468 0 01-2.618 3.327c-1.162.88-2.498 1.41-4.008 1.59zm-.627-5.258a2.74 2.74 0 001.414-.586c.425-.329.748-.73.969-1.205a2.86 2.86 0 00.235-1.535 2.742 2.742 0 00-.586-1.414 3.178 3.178 0 00-1.229-.966 2.742 2.742 0 00-1.513-.237 2.861 2.861 0 00-1.437.589 3.237 3.237 0 00-.943 1.225 2.732 2.732 0 00-.237 1.512 2.85 2.85 0 00.589 1.437c.327.41.728.725 1.202.946.491.22 1.002.298 1.536.234zM132.898 52.3c-1.509.18-2.932-.02-4.27-.602a8.663 8.663 0 01-3.35-2.615c-.881-1.162-1.412-2.505-1.594-4.029a7.81 7.81 0 01.652-4.25 8.793 8.793 0 012.661-3.356 7.851 7.851 0 013.936-1.606c1.509-.18 2.926.03 4.25.63a8.413 8.413 0 013.35 2.613c.894 1.145 1.432 2.48 1.614 4.004.182 1.524-.026 2.955-.624 4.294a8.655 8.655 0 01-2.64 3.33c-1.148.878-2.476 1.407-3.985 1.588zm-.628-5.257a2.743 2.743 0 001.415-.586c.424-.329.747-.73.969-1.205a2.85 2.85 0 00.234-1.535 2.733 2.733 0 00-.586-1.414 3.176 3.176 0 00-1.229-.966 2.737 2.737 0 00-1.512-.237 2.854 2.854 0 00-1.437.589c-.41.327-.724.735-.944 1.225a2.732 2.732 0 00-.237 1.512c.064.534.26 1.013.589 1.437.327.41.728.725 1.203.946.49.22 1.002.298 1.535.234z" fill="#fff"/></g><ellipse cx="15.697" cy="60.743" rx="6.571" ry="6.641" transform="rotate(-6.807 15.697 60.743)" fill="#fff"/><defs><filter id="filter0_d_130_3954" x="50.796" y="28.638" width="73.026" height="57.232" filterUnits="userSpaceOnUse" color-interpolation-filters="sRGB"><feFlood flood-opacity="0" result="BackgroundImageFix"/><feColorMatrix in="SourceAlpha" values="0 0 0 0 0 0 0 0 0 0 0 0 0 0 0 0 0 0 127 0" result="hardAlpha"/><feOffset dy="4"/><feGaussianBlur stdDeviation="2"/><feComposite in2="hardAlpha" operator="out"/><feColorMatrix values="0 0 0 0 0.2375 0 0 0 0 0.7125 0 0 0 0 0.594569 0 0 0 1 0"/><feBlend in2="BackgroundImageFix" result="effect1_dropShadow_130_3954"/><feBlend in="SourceGraphic" in2="effect1_dropShadow_130_3954" result="shape"/></filter><filter id="filter1_d_130_3954" x="119.624" y="33.907" width="45.923" height="43.864" filterUnits="userSpaceOnUse" color-interpolation-filters="sRGB"><feFlood flood-opacity="0" result="BackgroundImageFix"/><feColorMatrix in="SourceAlpha" values="0 0 0 0 0 0 0 0 0 0 0 0 0 0 0 0 0 0 127 0" result="hardAlpha"/><feOffset dy="4"/><feGaussianBlur stdDeviation="2"/><feComposite in2="hardAlpha" operator="out"/><feColorMatrix values="0 0 0 0 0.2375 0 0 0 0 0.7125 0 0 0 0 0.594569 0 0 0 1 0"/><feBlend in2="BackgroundImageFix" result="effect1_dropShadow_130_3954"/><feBlend in="SourceGraphic" in2="effect1_dropShadow_130_3954" result="shape"/></filter><linearGradient id="paint0_linear_130_3954" x1="48.004" y1="18.94" x2="172.222" y2="137.972" gradientUnits="userSpaceOnUse"><stop stop-color="#02CC9B"/><stop offset=".238" stop-color="#2BD7AD"/><stop offset=".505" stop-color="#8EEBD4"/><stop offset="1" stop-color="#02CC9B"/></linearGradient></defs></svg>